<svg width="546" height="512" viewBox="0 0 546 512" fill="none" xmlns="http://www.w3.org/2000/svg">
<path fill-rule="evenodd" clip-rule="evenodd" d="M379.332 2.41269L376.521 4.82424V27.2323C376.521 49.1504 376.575 49.6963 378.989 52.1718C382.036 55.2945 386.143 55.4144 389.469 52.4791C391.913 50.3224 391.997 49.6637 392.326 30.1781C392.696 8.23206 392.422 5.71226 389.294 2.29862C386.577 -0.66577 382.869 -0.623866 379.332 2.41269ZM299.801 57.7689C295.891 63.1925 296.813 65.916 305.929 75.8637C315.046 85.8113 317.542 86.8169 322.512 82.5501C324.603 80.7566 325.323 79.0829 325.323 76.0185C325.323 72.4477 324.271 70.7496 317.443 63.2996C310.616 55.8497 309.06 54.7021 305.787 54.7021C302.979 54.7021 301.445 55.4877 299.801 57.7689ZM450.836 63.8792C441.726 74.0946 440.777 77.2033 445.271 82.1055C449.763 87.0089 452.612 85.9731 461.974 76.0324C469.152 68.4102 470.385 66.5329 470.385 63.2298C470.385 60.909 469.529 58.4242 468.251 57.0298C466.974 55.6355 464.696 54.7021 462.569 54.7021C459.542 54.7021 457.822 56.0475 450.836 63.8792ZM372.392 75.7217C346.983 80.6693 324.682 103.653 318.275 131.496C315.721 142.598 316.625 161.943 320.218 173.04C323.691 183.772 331.303 196.227 338.908 203.623C346.058 210.576 358.548 217.902 367.608 220.454C375.935 222.799 392.256 222.841 400.563 220.537C423.456 214.187 442.727 193.656 449.707 168.18C454.741 149.806 449.923 117.406 441.691 114.274C437.595 112.717 432.277 115.298 431.359 119.289C430.928 121.165 431.524 125.215 432.912 129.827C436.044 140.24 436.731 148.506 435.242 157.856C432.334 176.114 422.084 190.957 406.61 199.324L397.481 204.26L384.601 204.233C373.644 204.211 370.793 203.803 365.509 201.499C351.234 195.276 339.247 181.066 334.803 165.104C332.913 158.314 332.602 154.899 333.017 145.476C333.463 135.382 333.969 133.042 337.411 125.133C349.871 96.5015 380.069 84.5147 406.24 97.8097C414.119 101.812 416.958 102.075 420.313 99.1109C423.353 96.4247 423.539 90.6111 420.698 87.1812C413.65 78.6802 388.204 72.642 372.392 75.7217ZM251.336 142.078C247.587 145.295 247.344 152.597 250.896 155.311C254.386 157.979 291.729 157.979 295.219 155.311C298.771 152.597 298.529 145.295 294.78 142.078C292.177 139.843 290.575 139.665 273.058 139.665C255.54 139.665 253.938 139.843 251.336 142.078ZM474.987 140.837C470.052 143.006 468.886 150.525 472.853 154.593C475.21 157.009 476.245 157.123 495.709 157.123H516.095L518.305 154.056C521.901 149.069 521.072 144.132 516.173 141.368C513.858 140.062 508.982 139.682 495.237 139.738C485.381 139.779 476.269 140.274 474.987 140.837ZM58.813 187.342C52.6201 189.007 51.7252 190.91 51.786 202.271C51.8799 219.634 58.1453 234.804 70.9278 248.616C80.3334 258.781 89.7976 264.705 101.789 267.934L110.93 270.397V329.249V388.101L101.863 378.259C93.166 368.818 92.7959 368.203 92.781 363.155C92.6914 333.274 67.0634 299.898 37.8302 291.589C31.5606 289.807 16.648 289.16 13.3809 290.528C7.0195 293.192 6.93311 312.536 13.207 329.485C17.3797 340.758 22.4505 349.05 30.5259 357.805C42.9789 371.306 56.2264 378.606 72.2835 380.813L81.5973 382.093L96.2635 397.91L110.93 413.726V454.187V494.647H58.0834H5.2361L2.61858 497.504C1.17863 499.075 0 501.717 0 503.376C0 505.034 1.17863 507.676 2.61858 509.248L5.2361 512.105H273.058H540.879L543.497 509.248C546.834 505.607 546.834 501.145 543.497 497.504L540.879 494.647H490.165C462.273 494.647 439.452 494.224 439.452 493.708C439.452 493.192 441.76 486.514 444.583 478.868C449.706 464.988 449.719 464.967 453.916 463.967C473.254 459.362 483.426 453.739 495.184 441.155C504.242 431.462 505.178 428.689 501.239 423.226C497.378 417.868 493.66 418.958 484.901 428.015C480.722 432.335 474.382 437.56 470.811 439.625C446.493 453.684 418.307 446.386 404.185 422.37C397.182 410.461 394.567 392.762 398.92 386.724C400.094 385.096 401.054 382.08 401.054 380.02C401.054 375.411 404.682 369.328 409.612 365.672C412.678 363.399 414.348 363.001 419.256 363.376C430.842 364.259 436.918 372.966 435.617 386.822L434.915 394.302L448.65 406.695C456.204 413.512 463.501 419.396 464.864 419.771C470.362 421.287 475.453 415.324 474.012 409.057C473.633 407.407 469.111 402.463 462.97 396.985L452.572 387.708L451.899 379.84C450.275 360.871 437.884 347.241 421.067 345.923C412.241 345.232 405.851 347.05 399.332 352.108C393.793 356.405 387.649 365.167 386.633 370.22L385.951 373.604H376.97C366.491 373.604 363.721 375.411 363.721 382.248C363.721 388.028 367.626 391.062 375.065 391.062H380.788V396.824C380.788 406.006 382.762 414.152 387.726 425.444C395.476 443.075 409.495 455.963 426.884 461.444L432.983 463.365L431.214 468.24C430.241 470.921 427.702 477.829 425.573 483.59L421.701 494.065H355.133H288.566L285.66 469.042C284.063 455.279 282.734 442.577 282.706 440.818L282.657 437.617H304.464C325.981 437.617 326.31 437.58 329.263 434.807C332.029 432.21 332.234 431.438 331.977 424.623C331.047 399.935 315.577 377.158 293.479 367.943C286.84 365.174 284.927 364.959 263.297 364.543C244.668 364.185 238.896 364.458 233.431 365.957C222.823 368.868 213.678 374.501 205.907 382.915C195.573 394.102 190.013 407.035 188.265 423.946C187.609 430.294 187.74 430.827 190.768 434.13L193.963 437.617H215.911C235.516 437.617 237.859 437.821 237.859 439.52C237.859 442.048 232.599 488.677 231.937 492.028L231.419 494.647H179.174H126.929V421.599V348.549L141.595 332.71L156.262 316.872L165.861 315.481C185.796 312.592 204.116 300.461 216.009 282.276C225.216 268.196 229.293 255.277 229.313 240.114C229.324 231.791 229.009 230.175 226.838 227.421C224.465 224.411 223.909 224.27 214.763 224.348C198.422 224.488 183.018 231.622 169.446 245.332C161.868 252.988 154.609 263.736 150.996 272.65C148.198 279.553 145.062 294.297 145.062 300.547C145.062 303.842 143.735 305.843 135.959 314.272L126.857 324.139L126.974 284.567C127.084 247.707 126.942 244.478 124.906 237.43C118.797 216.294 100.468 196.138 81.5973 189.807C73.6957 187.157 63.5755 186.062 58.813 187.342ZM84.2884 210.174C97.279 217.622 108.975 234.373 110.639 247.91L111.211 252.564L107.604 251.885C100.445 250.537 88.492 243.208 82.1306 236.267C75.7671 229.323 69.0537 216.283 67.8165 208.466L67.1935 204.525L72.0926 205.257C74.7869 205.66 80.2758 207.873 84.2884 210.174ZM305.775 222.166C296.664 232.382 295.715 235.49 300.209 240.392C304.701 245.296 307.55 244.26 316.912 234.319C324.09 226.697 325.323 224.82 325.323 221.517C325.323 219.196 324.467 216.711 323.189 215.317C321.912 213.922 319.634 212.989 317.507 212.989C314.48 212.989 312.76 214.334 305.775 222.166ZM444.863 216.056C440.953 221.48 441.875 224.203 450.991 234.151C457.702 241.473 459.957 243.25 462.538 243.25C466.8 243.25 470.385 239.035 470.385 234.024C470.385 230.803 469.115 228.799 462.505 221.587C455.678 214.137 454.122 212.989 450.849 212.989C448.041 212.989 446.507 213.775 444.863 216.056ZM212.925 247.614C212.036 254.733 206.319 267.783 200.727 275.457C192.529 286.709 174.619 297.952 164.892 297.952H161.353L162.313 291.842C164.494 277.959 174.928 261.146 186.984 252.086C193.73 247.015 204.805 242.234 210.005 242.146L213.616 242.086L212.925 247.614ZM378.654 245.578C376.671 247.741 376.521 249.457 376.521 269.89C376.521 289.131 376.755 292.19 378.396 294.401C381.21 298.193 386.879 297.995 390.032 293.996C392.437 290.944 392.521 290.148 392.521 270.111C392.521 250.903 392.358 249.158 390.309 246.317C387.539 242.473 381.831 242.112 378.654 245.578ZM36.5855 309.417C55.5257 316.235 72.1363 336.202 75.9058 356.681C76.5639 360.258 76.9138 363.391 76.6823 363.642C75.6082 364.814 64.8309 361.539 57.8168 357.909C41.556 349.495 27.8306 330.327 25.0925 312.209C24.3555 307.329 24.3864 307.263 27.4732 307.263C29.1937 307.263 33.2938 308.232 36.5855 309.417ZM412.828 376.152C407.114 382.843 413.666 393.357 421.377 389.872C424.124 388.631 426.653 384.508 426.653 381.271C426.653 380.428 425.658 378.357 424.442 376.671C421.586 372.709 415.981 372.459 412.828 376.152ZM291.269 386.072C302.784 392.263 311.476 403.709 315.167 417.54L315.867 420.159H260.309H204.753L205.441 416.958C207.537 407.208 214.478 396.429 222.621 390.277C232.967 382.463 236.578 381.706 261.886 382.038L284.314 382.333L291.269 386.072ZM268.992 463.222C270.587 476.985 271.914 489.686 271.942 491.446L271.991 494.647H260.258C249.81 494.647 248.521 494.423 248.486 492.61C248.464 491.49 249.769 478.635 251.385 464.045L254.324 437.516L260.208 437.858L266.092 438.199L268.992 463.222Z" fill="black"/>
</svg>
