<svg width="69" height="64" viewBox="0 0 69 64" fill="none" xmlns="http://www.w3.org/2000/svg">
<path fill-rule="evenodd" clip-rule="evenodd" d="M47.4165 0.301594L47.0651 0.603038V3.40405C47.0651 6.14381 47.0719 6.21204 47.3736 6.52148C47.7545 6.91182 48.2679 6.92681 48.6836 6.5599C48.9891 6.29031 48.9996 6.20797 49.0407 3.77227C49.087 1.02902 49.0528 0.71404 48.6618 0.287335C48.3221 -0.0832137 47.8586 -0.0779757 47.4165 0.301594ZM37.4751 7.22112C36.9864 7.89907 37.1016 8.23951 38.2411 9.48297C39.3807 10.7264 39.6927 10.8521 40.314 10.3188C40.5754 10.0946 40.6654 9.88537 40.6654 9.50232C40.6654 9.05597 40.5339 8.84371 39.6804 7.91246C38.827 6.98122 38.6325 6.83777 38.2234 6.83777C37.8724 6.83777 37.6806 6.93597 37.4751 7.22112ZM56.3545 7.98491C55.2157 9.26183 55.0971 9.65042 55.6589 10.2632C56.2204 10.8761 56.5765 10.7466 57.7467 9.50406C58.644 8.55128 58.7981 8.31662 58.7981 7.90373C58.7981 7.61363 58.6911 7.30303 58.5314 7.12873C58.3718 6.95445 58.087 6.83777 57.8211 6.83777C57.4428 6.83777 57.2277 7.00595 56.3545 7.98491ZM46.549 9.46522C43.3729 10.0837 40.5852 12.9566 39.7844 16.437C39.4651 17.8248 39.5781 20.2429 40.0272 21.63C40.4614 22.9715 41.4129 24.5284 42.3635 25.4529C43.2572 26.322 44.8185 27.2378 45.951 27.5568C46.9919 27.8499 49.032 27.8551 50.0704 27.5671C52.932 26.7734 55.3409 24.207 56.2134 21.0225C56.8426 18.7258 56.2404 14.6758 55.2114 14.2843C54.6994 14.0896 54.0346 14.4123 53.9199 14.9111C53.866 15.1456 53.9405 15.6519 54.114 16.2284C54.5055 17.53 54.5914 18.5633 54.4053 19.732C54.0418 22.0143 52.7605 23.8696 50.8262 24.9155L49.6851 25.5325L48.0751 25.5291C46.7055 25.5264 46.3491 25.4754 45.6886 25.1874C43.9043 24.4095 42.4059 22.6333 41.8504 20.638C41.6141 19.7893 41.5752 19.3624 41.6271 18.1845C41.6829 16.9228 41.7461 16.6303 42.1764 15.6416C43.7339 12.0627 47.5086 10.5643 50.78 12.2262C51.7649 12.7265 52.1197 12.7594 52.5391 12.3889C52.9191 12.0531 52.9424 11.3264 52.5872 10.8977C51.7062 9.83503 48.5255 9.08026 46.549 9.46522ZM31.417 17.7598C30.9484 18.1619 30.918 19.0746 31.362 19.4139C31.7982 19.7474 36.4661 19.7474 36.9024 19.4139C37.3464 19.0746 37.3161 18.1619 36.8475 17.7598C36.5221 17.4804 36.3219 17.4581 34.1323 17.4581C31.9425 17.4581 31.7422 17.4804 31.417 17.7598ZM59.3734 17.6046C58.7565 17.8758 58.6107 18.8156 59.1066 19.3241C59.4012 19.6261 59.5306 19.6404 61.9636 19.6404H64.5119L64.7881 19.257C65.2376 18.6336 65.134 18.0165 64.5216 17.671C64.2322 17.5078 63.6227 17.4603 61.9046 17.4673C60.6726 17.4724 59.5336 17.5343 59.3734 17.6046ZM7.35162 23.4178C6.57751 23.6259 6.46565 23.8638 6.47325 25.2839C6.48499 27.4543 7.26816 29.3505 8.86598 31.077C10.0417 32.3476 11.2247 33.0881 12.7236 33.4918L13.8663 33.7996V41.1561V48.5126L12.7329 47.2824C11.6457 46.1023 11.5995 46.0254 11.5976 45.3944C11.5864 41.6593 8.38293 37.4873 4.72878 36.4486C3.94508 36.2259 2.081 36.145 1.67261 36.316C0.877438 36.649 0.866639 39.067 1.65087 41.1856C2.17246 42.5948 2.80631 43.6313 3.81574 44.7256C5.37236 46.4133 7.0283 47.3258 9.03544 47.6016L10.1997 47.7616L12.0329 49.7388L13.8663 51.7158V56.7734V61.8309H7.26043H0.654513L0.327323 62.188C0.147329 62.3844 0 62.7146 0 62.922C0 63.1293 0.147329 63.4595 0.327323 63.656L0.654513 64.0131H34.1323H67.6099L67.9371 63.656C68.3543 63.2009 68.3543 62.6431 67.9371 62.188L67.6099 61.8309H61.2706C57.7841 61.8309 54.9315 61.778 54.9315 61.7135C54.9315 61.649 55.22 60.8143 55.5729 59.8585C56.2133 58.1235 56.2149 58.1209 56.7395 57.9959C59.1567 57.4203 60.4282 56.7174 61.898 55.1444C63.0302 53.9328 63.1473 53.5861 62.6549 52.9033C62.1723 52.2335 61.7075 52.3698 60.6126 53.5019C60.0903 54.0419 59.2978 54.695 58.8514 54.9531C55.8116 56.7105 52.2884 55.7983 50.5231 52.7963C49.6477 51.3076 49.3209 49.0953 49.865 48.3405C50.0118 48.137 50.1317 47.76 50.1317 47.5025C50.1317 46.9264 50.5852 46.166 51.2015 45.709C51.5847 45.4249 51.7935 45.3751 52.407 45.422C53.8553 45.5324 54.6148 46.6208 54.4521 48.3528L54.3644 49.2878L56.0812 50.8369C57.0255 51.689 57.9376 52.4245 58.108 52.4714C58.7953 52.6609 59.4316 51.9155 59.2515 51.1321C59.2041 50.9259 58.6389 50.3079 57.8713 49.6231L56.5715 48.4635L56.4874 47.48C56.2844 45.1089 54.7355 43.4051 52.6334 43.2404C51.5301 43.154 50.7314 43.3813 49.9165 44.0135C49.2241 44.5506 48.4561 45.6459 48.3291 46.2775L48.2439 46.7005H47.1213C45.8114 46.7005 45.4651 46.9264 45.4651 47.781C45.4651 48.5035 45.9533 48.8828 46.8831 48.8828H47.5985V49.603C47.5985 50.7508 47.8453 51.769 48.4658 53.1805C49.4345 55.3844 51.1869 56.9954 53.3605 57.6805L54.1229 57.9206L53.9017 58.53C53.7801 58.8651 53.4627 59.7286 53.1966 60.4488L52.7126 61.7581H44.3916H36.0708L35.7075 58.6303C35.5079 56.9099 35.3417 55.3221 35.3382 55.1023L35.3321 54.7021H38.058C40.7476 54.7021 40.7888 54.6975 41.1579 54.3509C41.5036 54.0263 41.5292 53.9298 41.4971 53.0779C41.3809 49.9919 39.4471 47.1448 36.6849 45.9929C35.855 45.6468 35.6159 45.6199 32.9121 45.5679C30.5835 45.5231 29.862 45.5573 29.1789 45.7446C27.8529 46.1085 26.7097 46.8126 25.7384 47.8644C24.4466 49.2628 23.7516 50.8794 23.5331 52.9933C23.4511 53.7868 23.4675 53.8534 23.846 54.2663L24.2454 54.7021H26.9889C29.4395 54.7021 29.7324 54.7276 29.7324 54.94C29.7324 55.256 29.0749 61.0846 28.9921 61.5035L28.9274 61.8309H22.3967H15.8661V52.6999V43.5686L17.6994 41.5888L19.5327 39.609L20.7326 39.4351C23.2245 39.074 25.5145 37.5576 27.0011 35.2845C28.152 33.5245 28.6616 31.9096 28.6641 30.0143C28.6655 28.9739 28.6261 28.7719 28.3547 28.4276C28.0581 28.0514 27.9886 28.0338 26.8454 28.0435C24.8028 28.061 22.8772 28.9528 21.1807 30.6665C20.2335 31.6235 19.3261 32.967 18.8745 34.0813C18.5248 34.9441 18.1327 36.7871 18.1327 37.5684C18.1327 37.9803 17.9669 38.2304 16.9949 39.284L15.8571 40.5174L15.8717 35.5709C15.8855 30.9634 15.8677 30.5598 15.6132 29.6788C14.8496 27.0368 12.5585 24.5173 10.1997 23.7259C9.21196 23.3946 7.94694 23.2578 7.35162 23.4178ZM10.536 26.2718C12.1599 27.2028 13.6219 29.2966 13.8299 30.9888L13.9014 31.5705L13.4505 31.4856C12.5556 31.3171 11.0615 30.401 10.2663 29.5334C9.47089 28.6654 8.63171 27.0354 8.47706 26.0583L8.39919 25.5656L9.01157 25.6571C9.34836 25.7075 10.0345 25.9841 10.536 26.2718ZM38.2219 27.7708C37.083 29.0478 36.9644 29.4363 37.5261 30.049C38.0876 30.662 38.4437 30.5325 39.614 29.2899C40.5112 28.3371 40.6654 28.1025 40.6654 27.6896C40.6654 27.3995 40.5584 27.0889 40.3986 26.9146C40.239 26.7403 39.9542 26.6236 39.6884 26.6236C39.31 26.6236 39.095 26.7918 38.2219 27.7708ZM55.6079 27.007C55.1191 27.685 55.2344 28.0254 56.3739 29.2689C57.2127 30.1841 57.4946 30.4063 57.8172 30.4063C58.35 30.4063 58.7981 29.8794 58.7981 29.253C58.7981 28.8504 58.6394 28.5999 57.8131 27.6984C56.9598 26.7671 56.7652 26.6236 56.3561 26.6236C56.0051 26.6236 55.8134 26.7219 55.6079 27.007ZM26.6156 30.9518C26.5045 31.8416 25.7899 33.4729 25.0909 34.4321C24.0661 35.8386 21.8274 37.244 20.6115 37.244H20.1691L20.2891 36.4803C20.5618 34.7449 21.866 32.6433 23.373 31.5108C24.2162 30.8769 25.6006 30.2793 26.2506 30.2683L26.702 30.2608L26.6156 30.9518ZM47.3317 30.6973C47.0839 30.9676 47.0651 31.1821 47.0651 33.7363C47.0651 36.1414 47.0944 36.5238 47.2995 36.8001C47.6512 37.2741 48.3599 37.2494 48.754 36.7495C49.0546 36.368 49.0651 36.2685 49.0651 33.7639C49.0651 31.3629 49.0447 31.1448 48.7886 30.7896C48.4424 30.3091 47.7289 30.264 47.3317 30.6973ZM4.57319 38.6771C6.94071 39.5294 9.01704 42.0253 9.48822 44.5851C9.57049 45.0323 9.61422 45.4239 9.58529 45.4553C9.45102 45.6018 8.10386 45.1924 7.2271 44.7386C5.1945 43.6869 3.47883 41.2909 3.13656 39.0261C3.04444 38.4161 3.0483 38.4079 3.43415 38.4079C3.64921 38.4079 4.16172 38.529 4.57319 38.6771ZM51.6035 47.019C50.8893 47.8554 51.7083 49.1696 52.6721 48.734C53.0155 48.5789 53.3316 48.0635 53.3316 47.6589C53.3316 47.5535 53.2072 47.2946 53.0552 47.0839C52.6982 46.5886 51.9976 46.5574 51.6035 47.019ZM36.4086 48.259C37.848 49.0329 38.9345 50.4636 39.3959 52.1925L39.4834 52.5199H32.5386H25.5941L25.6801 52.1198C25.9421 50.901 26.8098 49.5536 27.8276 48.7846C29.1209 47.8079 29.5722 47.7133 32.7357 47.7548L35.5392 47.7916L36.4086 48.259ZM33.624 57.9028C33.8234 59.6231 33.9892 61.2108 33.9927 61.4308L33.9989 61.8309H32.5322C31.2262 61.8309 31.0651 61.8029 31.0607 61.5763C31.058 61.4363 31.2211 59.8294 31.4231 58.0056L31.7905 54.6895L32.526 54.7323L33.2615 54.7749L33.624 57.9028Z" fill="black"/>
</svg>
