<svg width="517" height="512" viewBox="0 0 517 512" fill="none" xmlns="http://www.w3.org/2000/svg">
<g clip-path="url(#clip0_4_67)">
<path d="M192.273 2.13778C190.243 4.16868 190.136 5.66513 190.136 34.2046C190.136 62.7441 190.243 64.2405 192.273 66.2714C193.448 67.4472 195.37 68.4092 196.545 68.4092C201.139 68.4092 198.148 72.6848 181.591 89.3595L164.393 106.569L164.5 165.679L164.607 224.895L118.995 270.537L73.2773 316.286L67.1886 340.443C63.6636 354.338 60.2455 365.562 59.1773 366.737C57.4682 368.661 57.2546 368.661 53.3023 365.027C49.8841 362.034 48.2818 361.286 44.65 361.286C40.2705 361.286 39.7364 361.714 20.0818 381.381C0 401.476 0 401.476 0 406.286V410.99L50.525 461.441C99.9818 511.038 101.05 512 105.216 512C109.275 512 110.236 511.145 130.211 491.263L150.934 470.42L150.293 465.182C149.866 461.869 150.08 459.517 150.934 458.662C151.682 457.914 159.586 457.486 176.143 457.486H200.177L229.339 428.413L258.5 399.232L287.661 428.413L316.823 457.486H340.857C357.414 457.486 365.318 457.914 366.066 458.662C366.92 459.517 367.134 461.869 366.707 465.182L366.066 470.42L386.789 491.263C406.764 511.252 407.725 512 411.784 512C415.95 512 416.911 511.038 466.475 461.441L517 410.99V406.286C517 401.583 516.893 401.37 496.918 381.381C477.264 361.607 476.836 361.286 472.35 361.286C468.718 361.286 467.116 362.034 463.698 365.027C459.745 368.661 459.532 368.661 457.823 366.737C456.755 365.562 453.336 354.338 449.811 340.443L443.723 316.286L398.111 270.644L352.5 225.002V170.489V115.975L339.682 94.5971C332.632 82.8393 326.864 72.1503 326.864 70.7608C326.864 68.623 327.291 68.4092 333.273 68.4092C344.275 68.4092 343.955 69.4781 343.955 34.2046C343.955 5.66513 343.848 4.16868 341.818 2.13778C339.682 0 338.293 0 267.045 0C195.798 0 194.409 0 192.273 2.13778ZM326.864 34.2046V51.3069H267.045H207.227V34.2046V17.1023H267.045H326.864V34.2046ZM309.773 74.5019C309.773 80.4877 310.2 81.3428 322.591 102.079L335.409 123.457V167.496V211.534L328.039 211.427C323.98 211.427 320.134 211.748 319.493 212.068C318.639 212.603 318.318 210.358 318.318 204.8V196.676H309.773H301.227V208.969V221.261L295.673 216.985C292.575 214.634 288.73 212.496 287.127 212.175C284.243 211.534 284.136 211.32 284.136 204.052V196.676H275.591H267.045V205.014C267.045 212.924 266.939 213.458 264.268 214.954C261.384 216.451 256.898 221.261 256.15 223.613C255.83 224.468 254.868 224.254 252.839 222.757C250.061 220.727 250.061 220.513 249.955 208.648V196.676H241.409H232.864V206.831V216.878L228.805 218.054C224.105 219.23 215.773 224.895 215.773 226.819C215.773 227.674 215.452 227.781 214.705 227.033C213.85 226.178 213.85 225.002 214.705 222.971C215.345 221.261 215.773 208.541 215.773 191.225V162.472H207.227H198.682V186.843V211.213H190.136H181.591V163.648V116.082L198.682 98.8727L215.773 81.6635V75.0363V68.4092H262.773H309.773V74.5019ZM194.943 231.415C200.391 236.76 199.643 237.936 174.968 262.627L152.216 285.395L158.945 292.022L165.568 298.756L188.748 275.454C201.459 262.734 212.034 252.259 212.248 252.259C212.461 252.259 212.568 252.793 212.568 253.542C212.568 254.183 213.85 256.428 215.452 258.458C217.695 261.451 218.016 262.413 216.734 262.734C213.316 263.91 207.227 271.713 205.625 277.164C204.236 281.974 202.314 284.433 190.457 296.297L176.784 309.979L182.659 315.858C185.864 319.065 188.961 321.737 189.495 321.737C190.136 321.737 194.943 317.354 200.284 312.117L210.005 302.497L215.559 308.162L221.114 313.827L211.5 323.34C206.159 328.578 201.886 333.388 201.886 334.029C201.886 334.671 204.557 337.77 207.761 340.977L213.636 346.749L223.784 336.701L233.932 326.547L239.486 332.212L245.148 337.77L223.464 359.469C211.607 371.334 201.886 381.488 201.886 382.129C201.886 383.519 212.782 394.422 214.17 394.422C214.811 394.422 219.832 389.825 225.386 384.267C230.941 378.709 235.855 374.113 236.282 374.113C236.602 374.113 237.35 375.075 237.67 376.357C238.098 377.533 239.914 380.205 241.73 382.236L244.934 385.977L218.443 412.593L191.845 439.208L167.598 439.529L143.243 439.85L139.398 443.591L135.659 447.225L103.08 414.731L70.6068 382.343L74.025 378.281C77.0159 374.861 78.1909 371.334 83.3182 350.704L89.0864 327.081L138.33 277.912C174.327 241.998 188.214 228.743 189.923 228.743C191.311 228.743 193.555 229.919 194.943 231.415ZM316.395 263.696L351.432 298.756L358.055 292.022L364.784 285.395L342.032 262.627C317.998 238.577 317.036 237.081 321.309 232.164C322.27 230.881 324.514 229.598 326.116 229.171C329 228.529 331.884 231.202 378.564 277.805L427.914 327.081L433.682 350.704C438.809 371.334 439.984 374.861 442.975 378.281L446.393 382.343L413.92 414.731L381.341 447.225L377.602 443.591L373.757 439.85L349.402 439.529L325.155 439.208L289.05 403.08C250.061 364.065 250.168 364.172 255.295 358.507C260.102 353.483 261.705 354.445 282.534 375.182C293.109 385.764 302.295 394.422 302.83 394.422C304.218 394.422 315.114 383.519 315.114 382.129C315.114 381.595 294.177 360.11 268.648 334.564C235.961 301.856 222.182 287.319 222.182 285.715C222.182 283.043 226.241 278.126 228.591 277.805C229.445 277.699 231.155 277.699 232.33 277.805C233.505 277.912 248.566 292.022 268.648 312.117L302.936 346.322L309.239 339.908L315.648 333.495L272.066 289.884C234.786 252.473 228.591 245.846 228.591 243.173C228.591 239.005 232.33 235.157 236.495 235.157C239.38 235.157 245.041 240.394 283.282 278.661L326.864 322.271L333.273 315.858L339.682 309.552L305.5 275.24C285.418 255.145 271.318 240.073 271.211 238.898C271.105 237.722 271.105 236.012 271.211 235.157C271.532 232.805 276.445 228.743 279.116 228.743C280.718 228.743 292.041 239.432 316.395 263.696ZM86.8432 425.206L128.182 466.572L116.645 478.116L105.216 489.553L63.5568 447.866L21.8977 406.18L33.1136 394.956C39.3091 388.757 44.5432 383.733 44.8636 383.733C45.1841 383.733 63.9841 402.332 86.8432 425.206ZM483.886 394.956L495.102 406.18L453.443 447.866L411.784 489.553L400.355 478.116L388.818 466.572L430.157 425.206C453.016 402.332 471.816 383.733 472.136 383.733C472.457 383.733 477.691 388.757 483.886 394.956Z" fill="black"/>
<path d="M154.566 69.1574C136.514 79.6326 124.016 88.8251 110.877 101.438C92.2909 119.182 78.5114 137.78 67.4023 160.12C51.7 191.332 44.7568 220.94 44.7568 256.534C44.7568 271.927 46.7864 293.411 48.7091 299.504C49.4568 301.856 49.5637 301.856 58.8568 299.718C63.1296 298.756 66.2273 297.473 66.2273 296.725C66.2273 295.977 65.4796 290.632 64.625 284.753C62.4887 270.751 62.4887 242.96 64.625 228.743C71.3546 182.781 94.3205 140.346 128.716 109.882C139.932 99.9416 157.023 88.1837 168.986 82.1979L177.318 78.0293L175.823 74.5019C174.968 72.6848 173.473 69.0505 172.298 66.5921C171.23 64.0267 169.627 61.9958 168.666 61.9958C167.811 61.9958 161.402 65.2025 154.566 69.1574Z" fill="black"/>
<path d="M360.832 77.7086C358.589 81.5566 356.773 85.2977 356.773 85.9391C356.773 86.5804 359.55 88.7182 362.755 90.7491C373.116 96.9487 385.72 106.996 395.761 117.044C423.641 144.728 442.227 178.826 450.345 217.413C454.084 234.943 455.045 266.261 452.482 283.791C451.52 290.312 450.773 296.084 450.773 296.832C450.773 298.114 466.582 302.069 467.65 301C471.389 297.152 473.418 247.342 470.534 227.247C465.193 188.446 449.064 151.355 424.389 120.785C416.805 111.379 399.5 94.4902 390.42 87.5424C384.332 82.8393 365.959 70.547 365.105 70.547C364.998 70.547 362.968 73.7537 360.832 77.7086Z" fill="black"/>
<path d="M129.891 130.619C105.643 155.631 89.7273 185.667 81.9295 220.727C79.9 230.133 79.5795 234.622 79.5795 257.283C79.5795 271.499 79.7932 283.257 80.1136 283.577C80.4341 283.791 84.4932 283.471 89.0863 282.829L97.525 281.653L97.6318 257.603C97.8454 231.095 98.5932 225.43 105.216 205.655C112.907 182.567 124.977 162.686 142.282 144.728L153.711 132.863L148.37 126.557C145.486 123.137 142.495 120.037 141.855 119.823C141.214 119.609 135.873 124.419 129.891 130.619Z" fill="black"/>
<path d="M368.736 126.343L363.289 132.97L374.718 144.728C395.868 166.64 409.007 190.797 416.27 221.261C418.514 230.56 419.048 236.119 419.475 252.9L420.009 273.316L426.525 274.064C430.05 274.385 434.109 274.706 435.605 274.706H438.168L437.634 252.473C437.1 228.316 435.498 218.375 429.302 199.562C424.816 185.774 413.6 163.754 405.055 151.89C398.005 141.949 377.495 119.716 375.359 119.716C374.825 119.716 371.834 122.709 368.736 126.343Z" fill="black"/>
<path d="M249.527 424.458C248.245 437.071 247.498 436.109 258.607 436.109H268.434L267.686 429.588C267.366 425.954 267.045 421.785 267.045 420.503C267.045 418.044 266.725 417.937 258.607 417.937H250.275L249.527 424.458Z" fill="black"/>
<path d="M224.852 452.356C223.784 457.38 222.182 467.427 222.502 467.748C222.609 467.855 226.775 468.496 231.689 469.137C243.332 470.634 273.348 470.634 285.525 469.137C294.284 467.962 294.925 467.748 294.391 465.61C294.07 464.327 293.536 460.907 293.109 457.914C292.148 449.79 292.148 449.79 282.961 451.073C273.134 452.463 243.225 452.463 233.932 451.073C230.086 450.539 226.668 450.004 226.241 450.004C225.814 450.004 225.173 451.073 224.852 452.356Z" fill="black"/>
</g>
</svg>
