<svg width="512" height="512" viewBox="0 0 512 512" fill="none" xmlns="http://www.w3.org/2000/svg">
<g clip-path="url(#clip0_4_75)">
<path d="M53.2224 2.1289C50.7742 4.57713 50.3484 11.3896 52.4773 14.0507C53.1159 15.0087 71.4245 29.4852 93.0328 46.1971C129.011 74.1921 132.524 76.6403 136.356 76.6403C141.785 76.6403 144.765 73.7663 144.765 68.3376C144.765 66.1023 144.126 63.5476 143.488 62.5896C142.743 61.6316 124.434 47.1551 102.826 30.4432C66.8473 2.44824 63.3347 0 59.5026 0C56.7351 0 54.6062 0.745114 53.2224 2.1289Z" fill="black"/>
<path d="M368.086 18.9472C349.565 37.4686 349.139 37.8944 349.139 42.3651C349.139 45.452 349.778 47.4744 351.268 48.9647C352.758 50.4549 354.781 51.0936 357.868 51.0936C362.338 51.0936 362.764 50.6678 381.286 32.1464C399.807 13.6249 400.233 13.1992 400.233 8.72848C400.233 5.64158 399.594 3.61913 398.104 2.1289C396.614 0.638669 394.591 0 391.504 0C387.034 0 386.608 0.425777 368.086 18.9472Z" fill="black"/>
<path d="M284.953 34.2753C277.608 35.2333 269.838 38.4266 265.793 42.3651C258.874 48.8582 256.106 60.0349 258.98 69.4021C260.364 73.8728 260.364 74.8308 258.448 80.5788C256.745 85.3688 256.426 88.7751 256.745 95.9069C257.384 108.574 261.109 116.238 271.541 126.031C278.566 132.63 279.099 133.375 278.46 136.569C277.608 141.252 271.328 146.894 267.177 146.894C261.642 146.894 258.022 144.233 255.148 138.165C246.633 120.283 227.792 75.0437 227.792 72.7019C227.792 68.8699 231.624 61.2058 234.498 59.2898C235.775 58.5447 239.182 56.948 241.949 55.8836C250.891 52.4773 253.978 45.2391 248.549 39.9168C245.036 36.2977 240.14 36.5106 231.624 40.3426C222.896 44.2811 216.828 49.8162 213.209 57.2674C210.654 62.4832 210.229 64.6121 210.229 72.3825V81.4304L225.025 115.386C241.949 154.239 242.801 157.538 237.585 162.861C233.647 166.693 227.473 167.225 223.321 164.032C221.938 162.861 213.103 148.704 203.948 132.524C185.214 99.8453 184.363 97.3971 188.62 89.9459C190.324 87.1784 193.091 84.6237 196.923 82.4948C205.652 77.7048 207.568 71.3181 202.245 65.9958C197.668 61.4187 188.088 64.2927 178.827 73.0212C170.205 81.0046 166.267 94.6295 169.141 106.126C169.886 109 177.018 122.625 185.533 137.314C198.413 159.667 200.542 164.032 200.649 167.97C200.649 171.802 200.116 173.079 197.668 175.208C189.578 182.127 186.279 180.211 170.099 159.88C153.068 138.485 153.281 138.698 153.281 133.269C153.281 127.202 154.452 125.073 161.37 118.58C166.267 113.896 167.119 112.619 167.119 109.212C167.119 104.955 164.457 101.548 160.306 100.484C153.919 98.8873 141.252 109.425 137.633 119.325C135.504 124.86 135.504 126.669 136.143 175.102L136.888 225.131L140.401 235.243C146.042 251.955 152.748 262.387 166.054 275.267L172.654 281.866L163.499 393.42C154.239 504.336 154.239 504.868 156.261 507.636C157.964 509.978 159.135 510.403 163.393 510.403C172.654 510.403 171.27 518.706 181.276 398.636C188.727 309.329 190.43 292.298 191.707 292.617C197.668 294.32 200.116 294.001 203.31 290.807C209.271 284.847 206.822 279.311 195.646 273.776C177.018 264.622 161.796 245.568 156.368 224.918C154.664 218.212 154.132 212.145 153.706 192.665L153.174 168.715L155.41 171.376C156.687 172.867 160.519 177.55 164.032 181.701C171.589 190.962 176.486 194.368 184.363 196.072C195.007 198.307 208.1 193.41 213.422 185.214C215.019 182.766 216.083 182.127 217.68 182.659C218.851 182.979 223.428 183.617 227.899 183.83C234.605 184.256 236.84 183.937 241.417 182.021C247.378 179.466 254.936 172.015 256.639 167.225C257.703 164.244 257.81 164.138 264.409 164.67C277.395 165.735 289.104 158.922 293.894 147.533C296.236 141.785 296.236 141.785 298.791 143.381C301.133 144.978 301.346 145.617 301.026 152.961L300.707 160.945L291.659 163.819C254.297 175.953 228.005 204.694 222.47 239.501C220.235 253.658 221.405 260.577 226.408 262.812C230.453 264.622 233.008 264.196 236.201 261.003C238.862 258.448 239.182 257.064 239.82 248.975C242.162 214.699 267.815 187.662 306.242 178.721C320.186 175.528 319.973 175.953 319.548 154.984C319.335 144.872 318.696 136.782 317.951 135.291C317.206 133.695 310.393 128.905 300.281 122.837C291.34 117.409 282.824 111.874 281.44 110.596C275.479 105.061 272.818 92.1813 276.012 84.943L277.289 82.069L314.012 96.0133C334.237 103.571 351.588 110.596 352.546 111.554C353.504 112.619 358.4 127.308 363.509 145.297C372.238 175.421 372.77 177.657 372.344 185.321C371.919 191.494 371.067 195.007 368.406 200.755C365.319 207.461 362.232 210.761 333.918 238.969C308.371 264.409 301.771 270.476 296.768 272.818C293.362 274.415 290.169 276.65 289.53 277.821C288.146 280.376 288.146 284.847 289.53 287.295C290.914 289.956 296.343 292.085 299.536 291.233C301.984 290.595 302.197 290.914 302.729 295.065C303.049 297.62 304.965 344.882 307.094 400.233C309.222 455.584 311.138 502.314 311.458 504.23C312.522 511.042 321.889 513.49 326.786 508.274L329.341 505.507L324.763 392.037L320.293 278.566L350.523 248.123C383.308 215.125 385.224 212.57 389.163 196.923C392.462 183.83 391.079 174.144 380.753 138.804C371.067 105.7 370.109 103.252 365.532 98.568C361.806 94.9489 358.081 93.0328 344.136 87.9235C338.175 85.6881 332.747 83.3464 332.215 82.6012C331.682 81.9626 329.341 75.1501 326.892 67.5925C324.551 59.9285 321.251 51.5193 319.441 48.8582C312.309 37.5751 299.855 32.3593 284.953 34.2753ZM297.833 53.6482C302.41 56.0965 305.071 59.7156 307.519 66.9538C308.69 70.7859 309.542 73.9792 309.329 74.1921C309.116 74.405 303.155 72.3825 296.023 69.7214C288.891 66.9538 281.44 64.5056 279.418 64.1863C275.16 63.5476 274.415 60.78 277.289 56.6287C280.269 52.4773 292.191 50.7742 297.833 53.6482Z" fill="black"/>
<path d="M489.114 55.4578C483.899 57.7996 478.47 60.8865 477.192 62.3767C472.083 68.0183 475.809 76.6403 483.26 76.6403C487.837 76.6403 507.423 68.1247 509.658 65.2507C511.681 62.4832 511.255 55.6707 508.807 53.2224C505.507 49.9227 499.972 50.5613 489.114 55.4578Z" fill="black"/>
<path d="M425.247 84.5173C402.894 94.8424 401.723 95.4811 400.659 98.9938C398.423 105.806 401.83 110.703 408.855 110.703C412.793 110.703 455.904 91.4362 459.629 88.1364C462.716 85.1559 462.822 78.9821 459.842 75.7888C455.691 71.4245 450.901 72.5954 425.247 84.5173Z" fill="black"/>
<path d="M2.12889 78.7692C-0.319345 81.2175 -0.745124 88.0299 1.38377 90.7975C2.02244 91.7555 7.45113 94.5231 13.3056 96.8649C21.289 100.165 24.8016 101.123 27.3563 100.59C31.6141 99.8453 34.0623 96.5455 34.0623 91.4362C34.0623 86.3268 31.5077 84.3044 20.1181 79.9401C10.0058 76.1081 5.10934 75.7888 2.12889 78.7692Z" fill="black"/>
<path d="M45.452 94.9489C42.6844 97.0778 41.5135 102.4 43.1102 106.126C44.3876 109 46.5165 110.17 67.4861 118.58C91.7555 128.266 96.4391 129.224 100.058 125.605C102.506 123.157 102.932 116.451 100.91 113.577C98.9938 111.022 55.3514 93.6715 50.8807 93.6715C48.8582 93.6715 46.41 94.3102 45.452 94.9489Z" fill="black"/>
<path d="M84.1979 214.593C81.6432 215.338 62.4832 221.193 41.62 227.473C19.6923 234.072 2.98046 239.714 1.91601 240.778C0.745114 241.949 0 244.291 0 246.952C0 252.487 2.87401 255.468 8.19626 255.468C11.496 255.468 88.2428 233.327 97.1842 229.708C100.803 228.324 102.187 225.876 102.187 220.98C102.187 213.422 95.4811 210.974 84.1979 214.593Z" fill="black"/>
<path d="M402.362 223.534C399.594 226.302 399.488 233.434 402.149 236.095C405.023 238.969 452.178 255.787 455.265 254.936C461.864 253.339 464.419 244.291 459.629 239.82C456.329 236.946 413.219 221.405 408.323 221.405C405.874 221.405 403.746 222.151 402.362 223.534Z" fill="black"/>
<path d="M478.044 248.123C474.425 249.613 472.722 252.274 472.615 256.639C472.615 261.854 475.276 263.983 488.156 268.667C500.397 273.031 505.72 273.457 508.807 270.37C511.574 267.602 511.681 260.471 509.02 257.81C507.316 256.106 483.473 246.846 481.344 247.059C480.918 247.059 479.428 247.591 478.044 248.123Z" fill="black"/>
</g>
</svg>
