<svg width="64" height="64" viewBox="0 0 64 64" fill="none" xmlns="http://www.w3.org/2000/svg">
<path d="M6.6528 0.266113C6.34677 0.572141 6.29355 1.4237 6.55966 1.75634C6.63948 1.87609 8.92806 3.68565 11.6291 5.77464C16.1264 9.27401 16.5655 9.58004 17.0445 9.58004C17.7231 9.58004 18.0956 9.22079 18.0956 8.5422C18.0956 8.26279 18.0157 7.94345 17.936 7.8237C17.8429 7.70395 15.5542 5.89439 12.8532 3.8054C8.35591 0.30603 7.91683 0 7.43782 0C7.09188 0 6.82577 0.0931393 6.6528 0.266113Z" fill="black"/>
<path d="M46.0107 2.3684C43.6956 4.68358 43.6423 4.7368 43.6423 5.29564C43.6423 5.6815 43.7222 5.9343 43.9085 6.12059C44.0947 6.30686 44.3476 6.3867 44.7335 6.3867C45.2922 6.3867 45.3455 6.33348 47.6607 4.0183C49.9758 1.70311 50.0291 1.6499 50.0291 1.09106C50.0291 0.705198 49.9492 0.452391 49.763 0.266113C49.5767 0.0798336 49.3238 0 48.938 0C48.3792 0 48.326 0.0532222 46.0107 2.3684Z" fill="black"/>
<path d="M35.6191 4.28442C34.701 4.40417 33.7297 4.80334 33.2241 5.29565C32.3592 6.10729 32.0132 7.50437 32.3725 8.67527C32.5455 9.23411 32.5455 9.35386 32.306 10.0724C32.0931 10.6711 32.0532 11.0969 32.0931 11.9884C32.173 13.5718 32.6386 14.5298 33.9426 15.7539C34.8207 16.5788 34.8873 16.6719 34.8075 17.0711C34.701 17.6565 33.916 18.3618 33.3971 18.3618C32.7052 18.3618 32.2527 18.0291 31.8935 17.2706C30.8291 15.0354 28.474 9.38047 28.474 9.08775C28.474 8.60875 28.953 7.65074 29.3122 7.41124C29.4718 7.3181 29.8977 7.11851 30.2436 6.98546C31.3613 6.55967 31.7472 5.6549 31.0686 4.98961C30.6295 4.53722 30.0175 4.56384 28.953 5.04284C27.862 5.53515 27.1035 6.22704 26.6511 7.15844C26.3317 7.81041 26.2786 8.07652 26.2786 9.04782V10.1788L28.1281 14.4233C30.2436 19.2799 30.3501 19.6923 29.6981 20.3576C29.2059 20.8366 28.4341 20.9031 27.9151 20.504C27.7422 20.3576 26.6378 18.588 25.4935 16.5655C23.1517 12.4807 23.0453 12.1746 23.5775 11.2432C23.7905 10.8973 24.1363 10.578 24.6153 10.3119C25.7065 9.71311 25.946 8.91477 25.2806 8.24949C24.7085 7.67735 23.511 8.0366 22.3533 9.12766C21.2756 10.1256 20.7834 11.8287 21.1426 13.2658C21.2357 13.625 22.1272 15.3281 23.1916 17.1643C24.8016 19.9584 25.0677 20.504 25.0811 20.9963C25.0811 21.4753 25.0145 21.6349 24.7085 21.901C23.6972 22.7659 23.2848 22.5264 21.2623 19.985C19.1335 17.3106 19.1601 17.3373 19.1601 16.6586C19.1601 15.9003 19.3065 15.6341 20.1712 14.8225C20.7833 14.237 20.8898 14.0774 20.8898 13.6515C20.8898 13.1194 20.5571 12.6935 20.0382 12.5605C19.2398 12.3609 17.6565 13.6781 17.2041 14.9156C16.938 15.6075 16.938 15.8336 17.0178 21.8878L17.111 28.1414L17.5501 29.4054C18.2552 31.4944 19.0935 32.7984 20.7567 34.4084L21.5817 35.2333L20.4373 49.1775C19.2798 63.042 19.2798 63.1085 19.5326 63.4545C19.7455 63.7473 19.8918 63.8004 20.4241 63.8004C21.5817 63.8004 21.4087 64.8383 22.6595 49.8295C23.5908 38.6661 23.8037 36.5373 23.9633 36.5771C24.7085 36.79 25.0145 36.7501 25.4137 36.3509C26.1588 35.6059 25.8527 34.9139 24.4557 34.222C22.1272 33.0778 20.2245 30.696 19.546 28.1148C19.333 27.2765 19.2665 26.5181 19.2132 24.0831L19.1467 21.0894L19.4262 21.422C19.5858 21.6084 20.0648 22.1938 20.504 22.7126C21.4486 23.8703 22.0607 24.296 23.0454 24.509C24.3759 24.7884 26.0125 24.1763 26.6777 23.1518C26.8773 22.8458 27.0103 22.7659 27.21 22.8324C27.3563 22.8724 27.9285 22.9521 28.4873 22.9788C29.3256 23.032 29.605 22.9921 30.1771 22.7526C30.9222 22.4333 31.867 21.5019 32.0799 20.9031C32.2129 20.5305 32.2262 20.5173 33.0511 20.5838C34.6743 20.7169 36.138 19.8653 36.7367 18.4416C37.0295 17.7231 37.0295 17.7231 37.3488 17.9226C37.6416 18.1223 37.6682 18.2021 37.6282 19.1201L37.5883 20.1181L36.4573 20.4774C31.7871 21.9941 28.5006 25.5868 27.8087 29.9376C27.5293 31.7073 27.6756 32.5721 28.301 32.8515C28.8066 33.0778 29.126 33.0245 29.5251 32.6254C29.8577 32.306 29.8977 32.133 29.9775 31.1219C30.2702 26.8374 33.4768 23.4578 38.2802 22.3401C40.0232 21.941 39.9966 21.9941 39.9435 19.373C39.9168 18.109 39.837 17.0978 39.7438 16.9114C39.6507 16.7119 38.7991 16.1131 37.5351 15.3546C36.4175 14.6761 35.353 13.9843 35.18 13.8245C34.4348 13.1326 34.1022 11.5227 34.5015 10.6179L34.6611 10.2586L39.2515 12.0017C41.7796 12.9464 43.9485 13.8245 44.0682 13.9443C44.188 14.0774 44.8 15.9135 45.4386 18.1621C46.5297 21.9276 46.5962 22.2071 46.543 23.1651C46.4898 23.9368 46.3833 24.3759 46.0507 25.0944C45.6648 25.9326 45.279 26.3451 41.7397 29.8711C38.5463 33.0511 37.7213 33.8095 37.096 34.1023C36.6702 34.3019 36.2711 34.5813 36.1912 34.7276C36.0182 35.047 36.0182 35.6059 36.1912 35.9119C36.3642 36.2445 37.0428 36.5106 37.442 36.4041C37.748 36.3244 37.7746 36.3643 37.8411 36.8831C37.8811 37.2025 38.1206 43.1103 38.3867 50.0291C38.6527 56.948 38.8922 62.7893 38.9322 63.0288C39.0652 63.8803 40.2361 64.1863 40.8482 63.5343L41.1676 63.1884L40.5953 49.0046L40.0366 34.8208L43.8153 31.0154C47.9135 26.8906 48.153 26.5713 48.6453 24.6154C49.0577 22.9788 48.8848 21.768 47.5941 17.3505C46.3833 13.2125 46.2636 12.9065 45.6915 12.321C45.2257 11.8686 44.7601 11.6291 43.017 10.9904C42.2718 10.711 41.5933 10.4183 41.5268 10.3252C41.4602 10.2453 41.1676 9.39377 40.8615 8.44907C40.5688 7.49107 40.1563 6.43992 39.9301 6.10729C39.0386 4.6969 37.4818 4.04492 35.6191 4.28442ZM37.2291 6.70604C37.8012 7.01207 38.1338 7.46446 38.4398 8.36924C38.5862 8.84825 38.6927 9.24741 38.6661 9.27402C38.6395 9.30064 37.8943 9.04782 37.0028 8.71519C36.1113 8.36924 35.18 8.06321 34.9272 8.0233C34.395 7.94346 34.3018 7.59751 34.6611 7.0786C35.0336 6.55967 36.5238 6.34679 37.2291 6.70604Z" fill="black"/>
<path d="M61.1393 6.93223C60.4874 7.22496 59.8088 7.61082 59.649 7.79709C59.0104 8.50229 59.4761 9.58004 60.4075 9.58004C60.9796 9.58004 63.4279 8.51559 63.7073 8.15634C63.9601 7.81041 63.9069 6.95884 63.6009 6.65281C63.1884 6.24034 62.4965 6.32017 61.1393 6.93223Z" fill="black"/>
<path d="M53.1558 10.5647C50.3617 11.8553 50.2153 11.9351 50.0823 12.3742C49.8028 13.2258 50.2287 13.8379 51.1068 13.8379C51.5991 13.8379 56.988 11.4295 57.4536 11.0171C57.8395 10.6445 57.8527 9.87277 57.4802 9.47361C56.9613 8.92807 56.3626 9.07444 53.1558 10.5647Z" fill="black"/>
<path d="M0.266081 9.84617C-0.0399486 10.1522 -0.093171 11.0038 0.172941 11.3497C0.252774 11.4695 0.931361 11.8154 1.66317 12.1081C2.66109 12.5206 3.10017 12.6404 3.41951 12.5738C3.95173 12.4807 4.25776 12.0682 4.25776 11.4295C4.25776 10.7909 3.93843 10.5381 2.51473 9.99253C1.25069 9.51353 0.638637 9.47362 0.266081 9.84617Z" fill="black"/>
<path d="M5.68155 11.8686C5.3356 12.1347 5.18924 12.8 5.38882 13.2657C5.5485 13.625 5.81461 13.7712 8.43581 14.8225C11.4695 16.0332 12.0549 16.153 12.5073 15.7006C12.8133 15.3946 12.8666 14.5564 12.6138 14.1971C12.3743 13.8777 6.91897 11.7089 6.36014 11.7089C6.10732 11.7089 5.8013 11.7888 5.68155 11.8686Z" fill="black"/>
<path d="M10.5247 26.8241C10.2054 26.9172 7.8104 27.6491 5.2025 28.4341C2.46154 29.259 0.372558 29.9642 0.239501 30.0972C0.0931392 30.2436 0 30.5364 0 30.869C0 31.5609 0.359251 31.9335 1.02453 31.9335C1.437 31.9335 11.0303 29.1659 12.148 28.7135C12.6004 28.5405 12.7734 28.2345 12.7734 27.6225C12.7734 26.6777 11.9351 26.3717 10.5247 26.8241Z" fill="black"/>
<path d="M50.2952 27.9418C49.9492 28.2878 49.936 29.1793 50.2686 29.5119C50.6279 29.8711 56.5222 31.9734 56.9081 31.867C57.733 31.6674 58.0524 30.5364 57.4536 29.9775C57.0411 29.6183 51.6524 27.6756 51.0404 27.6756C50.7342 27.6756 50.4682 27.7689 50.2952 27.9418Z" fill="black"/>
<path d="M59.7555 31.0154C59.3032 31.2016 59.0903 31.5343 59.0769 32.0799C59.0769 32.7318 59.4095 32.9979 61.0195 33.5834C62.5497 34.1289 63.215 34.1821 63.6009 33.7963C63.9468 33.4503 63.9602 32.5589 63.6275 32.2263C63.4145 32.0133 60.4342 30.8558 60.168 30.8824C60.1148 30.8824 59.9285 30.9489 59.7555 31.0154Z" fill="black"/>
</svg>
