<svg width="79" height="64" viewBox="0 0 79 64" fill="none" xmlns="http://www.w3.org/2000/svg">
<path fill-rule="evenodd" clip-rule="evenodd" d="M28.0663 0.316053C27.3024 0.663047 26.4241 1.66197 26.1871 2.45372C26.0893 2.77975 26.0094 3.95063 26.0094 5.05587V7.06534H18.8257C13.8127 7.06534 11.5276 7.1175 11.2629 7.23822C10.4866 7.59179 10.4176 8.80521 11.1513 9.19795C11.353 9.30581 13.8951 9.36028 18.732 9.36028H26.0094V10.5842V11.8082H15.3762H4.74293V10.5842V9.36028H5.78499C7.03727 9.36028 7.49686 9.05353 7.49686 8.218C7.49686 7.34502 6.97041 7.06534 5.3266 7.06534C3.83458 7.06534 3.30277 7.24388 2.76744 7.9244C2.47599 8.29496 2.44799 8.53012 2.44799 10.6103C2.44799 14.0412 2.51867 14.1031 6.43461 14.1031C8.47021 14.1031 9.04365 14.1461 8.98903 14.2945C8.95018 14.3996 7.51461 18.7027 5.7989 23.8567L2.67931 33.2277L2.06641 33.2283C1.30418 33.2289 0.553582 33.6722 0.219133 34.3188C0.0112108 34.7209 -0.0236725 35.1378 0.0297233 36.5825C0.0890858 38.1883 0.140798 38.4481 0.584946 39.3733C1.13237 40.5138 2.17076 41.5596 3.26713 42.0749C4.5044 42.6565 5.62603 42.7408 11.3394 42.6816C16.5601 42.6275 16.7847 42.6131 17.6382 42.274C18.8764 41.7822 20.1796 40.5411 20.7462 39.3142C21.1489 38.4423 21.1946 38.1731 21.2401 36.4133L21.2903 34.4732L20.7683 33.9033C20.3138 33.4075 20.1376 33.3246 19.4112 33.2642L18.5764 33.1951L15.4623 23.8403C13.7495 18.6953 12.3164 14.3996 12.2775 14.2945C12.2222 14.144 13.2061 14.1031 16.8805 14.1031H21.554L21.6014 16.9718C21.6681 20.9914 21.4252 20.5641 26.6096 25.79C30.5742 29.7864 31.0813 30.4065 30.8585 30.9873C30.8145 31.1018 30.5682 31.2374 30.3112 31.2889C29.6883 31.4133 29.2745 31.8538 29.0711 32.609C28.9589 33.0259 28.9185 35.3743 28.9484 39.7448L28.9928 46.2591L29.4221 46.6282C29.9478 47.0802 30.2833 47.093 30.8064 46.6815L31.2079 46.3658L31.2479 39.9114L31.2879 33.4571H39.0906H46.8935L46.9325 47.5711L46.9715 61.6851H39.0914H31.2113V56.1772C31.2113 50.8732 31.2 50.658 30.9053 50.3632C30.5186 49.9767 29.8224 49.9706 29.3541 50.3497L28.9928 50.642L28.9444 55.9724C28.8859 62.3968 28.9206 62.7909 29.6044 63.4746L30.1098 63.9801H39.0635H48.0174L48.4837 63.5877C48.7401 63.3718 49.0203 62.9416 49.1065 62.6315C49.279 62.0101 49.337 33.4735 49.1674 32.6257C49.044 32.0093 48.3183 31.2736 47.7713 31.2106C47.3644 31.1636 47.351 31.1314 47.3063 30.0946C47.2446 28.6618 47.323 28.4281 48.1723 27.512C49.3203 26.2739 49.9549 25.4275 50.548 24.3439C51.7848 22.0844 52.1718 20.2607 52.1718 16.6907V14.1031H59.1495C64.6673 14.1031 66.1123 14.1433 66.0566 14.2945C66.0178 14.3996 64.5847 18.6953 62.8719 23.8403L59.7577 33.1951L58.9231 33.2642C58.1966 33.3246 58.0203 33.4075 57.566 33.9033L57.0437 34.4732L57.0939 36.4133C57.1395 38.1731 57.1853 38.4423 57.588 39.3142C58.1571 40.5468 59.4597 41.7851 60.696 42.2689C61.493 42.5807 61.8528 42.6164 64.3096 42.626C66.9984 42.6368 67.0424 42.6317 67.3313 42.2758C67.6775 41.8491 67.7107 41.2072 67.4076 40.792C67.212 40.5239 66.9321 40.4868 64.5389 40.4107C62.2384 40.3378 61.806 40.284 61.2752 40.004C59.9378 39.2994 59.3626 38.2751 59.3626 36.5986V35.5227H67.7009H76.0392L76.0377 36.5554C76.0343 38.92 74.4866 40.4185 72.0482 40.4185C71.4421 40.4185 71.2648 40.4869 71.0015 40.8217C70.6026 41.3288 70.6015 41.6488 70.9969 42.1517C71.4036 42.6686 72.1073 42.7902 73.3956 42.5658C75.4441 42.209 77.202 40.8437 77.8931 39.0725C78.3588 37.8792 78.4898 35.0434 78.113 34.3149C77.7805 33.6719 77.0284 33.2289 76.2678 33.2283L75.6549 33.2277L72.5353 23.8567C70.8196 18.7027 69.3841 14.3996 69.3452 14.2945C69.2906 14.1461 69.864 14.1031 71.8997 14.1031C75.7983 14.1031 75.8862 14.0245 75.8862 10.5361C75.8862 8.5312 75.8572 8.29358 75.5667 7.9244C74.8642 7.0312 75.3525 7.06534 63.2717 7.06534H52.1718L52.1703 6.41511C52.1682 5.46131 51.5568 4.26901 50.7825 3.70813C49.889 3.06096 49.1173 2.88593 47.5444 2.97407L46.2063 3.04887L46.0444 2.44761C45.8401 1.68858 44.9362 0.675746 44.1396 0.312992C43.2694 -0.0832685 40.8693 -0.0786789 39.9891 0.320948C39.642 0.478533 39.3082 0.688138 39.2474 0.786514C39.1662 0.917786 39.068 0.903099 38.8787 0.731744C38.326 0.231752 37.5087 0.0275007 36.0737 0.0308662C34.656 0.0342318 33.5626 0.329974 33.2804 0.786514C33.1992 0.917786 33.1011 0.903099 32.9117 0.731744C32.3593 0.231752 31.5418 0.0275007 30.107 0.0308662C29.0596 0.0333139 28.5241 0.10813 28.0663 0.316053ZM31.6006 2.69805L31.9762 3.07351V7.52432V11.9751L32.3519 12.3506C32.8304 12.8293 33.4169 12.8293 33.8957 12.3506L34.2712 11.9751V7.52432V3.07351L34.6468 2.69805C34.9786 2.3662 35.1557 2.32246 36.1657 2.32246C37.2186 2.32246 37.334 2.35427 37.626 2.7256C37.9303 3.11222 37.9431 3.30866 37.9431 7.55186V11.9751L38.3187 12.3506C38.7973 12.8293 39.3839 12.8293 39.8624 12.3506L40.2381 11.9751V7.52432V3.07351L40.6137 2.69805C40.9454 2.3662 41.1226 2.32246 42.1325 2.32246C43.1854 2.32246 43.3009 2.35427 43.5928 2.7256C43.897 3.11222 43.9099 3.30866 43.9099 7.55186V11.9751L44.2857 12.3506C44.7642 12.8293 45.3507 12.8293 45.8293 12.3506C46.2019 11.9782 46.2049 11.9517 46.2049 9.04955V6.12378L46.652 5.67659C47.0404 5.28828 47.2127 5.22938 47.9601 5.22938C48.9608 5.22938 49.6826 5.54714 49.807 6.0424C49.855 6.2341 49.8732 9.48604 49.8474 13.2687L49.8003 20.1465L49.3695 21.3705C48.8328 22.8953 47.9057 24.3833 46.5262 25.9333C45.2499 27.3674 44.9809 28.0428 44.9809 29.8126V31.0858H39.1119H33.2429L33.1535 30.3311C32.9923 28.9704 32.5713 28.4298 28.3794 24.2009C26.1689 21.9711 24.2493 19.9262 24.1137 19.6569C23.917 19.2658 23.8674 18.6583 23.8674 16.6354V14.1031H24.9385H26.0094V15.23C26.0094 16.1383 26.071 16.435 26.3266 16.76C26.765 17.3174 27.5488 17.3174 27.9871 16.76C28.2971 16.3662 28.3045 16.2024 28.3045 9.74277C28.3045 3.28311 28.3118 3.11926 28.6216 2.7256C28.9135 2.35427 29.0289 2.32246 30.0819 2.32246C31.0919 2.32246 31.2691 2.3662 31.6006 2.69805ZM73.5913 10.5842V11.8082H62.8816H52.1718V10.5842V9.36028H62.8816H73.5913V10.5842ZM13.4571 25.0225L16.1932 33.2277H10.6975C7.67494 33.2277 5.20192 33.1767 5.20192 33.1145C5.20192 32.9158 10.6233 16.7196 10.6731 16.7695C10.6994 16.7957 11.9523 20.5096 13.4571 25.0225ZM73.1323 33.1119C73.1323 33.1755 70.6593 33.2277 67.6367 33.2277H62.1413L64.9083 24.9281L67.6753 16.6287L70.4039 24.8123C71.9045 29.3134 73.1323 33.0482 73.1323 33.1119ZM18.9715 36.5986C18.9715 38.2726 18.4036 39.2864 17.0592 40.0118C16.4719 40.3288 16.2345 40.3441 11.1688 40.3929C7.61069 40.4269 5.6323 40.3869 5.09849 40.2696C3.33276 39.8818 2.29926 38.5117 2.29651 36.5554L2.29498 35.5227H10.6333H18.9715V36.5986ZM34.0655 36.2615C33.7022 36.663 33.7393 37.5512 34.1343 37.9086C34.4361 38.1817 34.7481 38.2001 39.1024 38.2001C43.6817 38.2001 43.7533 38.1952 44.0844 37.8644C44.4965 37.4521 44.5233 36.7118 44.1413 36.2896C43.8732 35.9935 43.6784 35.9816 39.0906 35.9816C34.6619 35.9816 34.3004 36.0018 34.0655 36.2615Z" fill="black"/>
</svg>
