<svg width="74" height="64" viewBox="0 0 74 64" fill="none" xmlns="http://www.w3.org/2000/svg">
<path fill-rule="evenodd" clip-rule="evenodd" d="M16.4132 0.0834833C16.2861 0.114461 15.6618 0.224041 15.026 0.326992C10.323 1.08819 5.75668 4.06193 3.08332 8.10481C1.6366 10.2925 0.829783 12.2244 0.283428 14.8091C-0.123448 16.7344 -0.0872303 20.3727 0.359717 22.4669C1.23758 26.5802 3.24192 30.5038 6.38088 34.2542L7.62818 35.7444L7.2555 36.489C5.39343 40.21 7.93687 44.683 12.0836 44.9796C13.1108 45.0531 13.1173 45.0566 13.0554 45.4788C13.0211 45.7128 13.0705 46.2765 13.1649 46.7318C13.7445 49.5205 15.8474 51.3889 18.6443 51.6005C19.6217 51.6743 19.7976 51.7288 19.7318 51.9358C19.5936 52.3716 19.9392 53.9909 20.349 54.8288C20.9109 55.9775 21.9384 56.9705 23.1598 57.546C24.0721 57.9755 24.3563 58.0345 25.5316 58.0369L26.8673 58.0396L26.9657 58.8275C27.3622 61.9972 30.5831 64.3597 33.7552 63.8072C35.5129 63.501 35.8679 63.2135 42.4097 56.7983L48.5472 50.7791L49.419 50.7473C50.4775 50.7087 51.3342 50.4215 52.23 49.8053C53.4796 48.9455 54.4252 47.4589 54.5859 46.1008L54.6737 45.3599L56.0798 45.2967C57.3166 45.2415 57.6034 45.1709 58.4591 44.7132C60.2628 43.7482 61.4162 41.9786 61.4162 40.1762V39.3546L62.5377 39.2826C65.2512 39.1084 67.4244 36.9529 67.6834 34.179L67.776 33.1889L68.7188 33.0921C70.6471 32.8941 72.4082 31.6104 73.2543 29.7857C73.5926 29.0559 73.6595 28.6941 73.6579 27.601C73.6554 25.8256 73.2521 24.8241 71.992 23.4635L71.0421 22.438L71.2215 21.4361C71.4805 19.988 71.4719 16.9158 71.2042 15.3808C70.0816 8.94414 65.876 3.70083 59.9522 1.35251C55.6774 -0.341888 50.3764 -0.297655 45.6189 1.47226C42.3552 2.68642 40.2441 4.00291 36.1162 7.39786L35.6641 7.7699L35.016 7.1559C32.6188 4.88417 29.1156 2.6818 25.9708 1.46933C23.5975 0.55432 21.6169 0.165322 18.9561 0.0913437C17.6847 0.0560504 16.5402 0.0525052 16.4132 0.0834833ZM21.1909 2.87213C25.015 3.49184 29.1763 5.54271 32.6142 8.50228C34.4763 10.1051 40.3698 15.4457 40.4224 15.5777C40.4885 15.7437 38.7905 16.4517 37.8668 16.6432C36.2633 16.9758 34.5697 16.7895 33.1736 16.1269C32.8628 15.9794 32.1446 15.4492 31.5776 14.9487C29.9189 13.4845 30.0816 13.4163 26.1474 17.2257C24.3385 18.9771 22.7959 20.5749 22.7193 20.7764C22.3775 21.6754 23.4365 22.7084 24.3453 22.3627C24.5482 22.2856 25.8964 21.0674 27.3411 19.6557L29.9678 17.0887L30.7265 17.6457C32.3302 18.8229 34.0847 19.3475 36.3716 19.3337C38.1253 19.323 39.4179 19.0308 40.8288 18.3261C42.9348 17.274 44.0335 16.0913 43.7055 15.2289C43.629 15.0278 42.2481 13.6894 40.6368 12.2546C39.0255 10.8199 37.7012 9.59561 37.6943 9.53412C37.6874 9.47247 38.1844 9.00333 38.799 8.49149C45.7974 2.66345 53.628 1.10853 60.1308 4.25551C65.0411 6.63188 68.2302 11.2244 68.7973 16.7356C68.876 17.4984 68.9018 18.5958 68.8549 19.1744L68.7699 20.2264L65.7481 17.2184C62.287 13.7732 61.7192 13.4002 59.7766 13.2953C57.0866 13.1499 54.7672 14.7796 54.0618 17.3103C53.8276 18.1498 53.7959 18.1879 53.416 18.0808C53.1962 18.0191 52.4619 17.97 51.7837 17.972C50.78 17.9748 50.3881 18.051 49.6761 18.3821C48.5028 18.9273 47.4657 19.9156 46.8809 21.0451C46.4483 21.8815 46.399 22.1159 46.3946 23.3627C46.3919 24.1255 46.4242 24.918 46.4665 25.1234C46.5357 25.4593 46.47 25.5163 45.8155 25.6846C44.295 26.0754 42.7622 27.3646 42.1023 28.8069C41.8404 29.3794 41.7722 29.8284 41.7692 30.9917C41.7673 31.7969 41.8178 32.641 41.8813 32.8673C41.9864 33.2412 41.9509 33.2886 41.4961 33.3848C40.682 33.5568 39.257 34.3842 38.6861 35.0161C38.0763 35.6913 37.4648 36.8342 37.2939 37.6188C37.0862 38.5729 37.1926 40.0014 37.5423 40.949C37.8487 41.7794 38.215 42.1978 41.8251 45.8411L45.773 49.8252L40.2247 55.2941C37.1731 58.3021 34.4683 60.8757 34.2139 61.0133C33.9392 61.1618 33.3766 61.2656 32.827 61.2691C31.1045 61.2802 29.7153 60.0104 29.5483 58.2726C29.4096 56.8274 29.5009 56.7047 34.3868 51.7895C38.453 47.699 38.9147 47.1836 38.9147 46.7348C38.9147 46.03 38.3308 45.4788 37.5833 45.4788C37.0357 45.4788 36.7844 45.7021 32.2207 50.24C29.5873 52.8584 27.2109 55.1125 26.9395 55.2488C26.2553 55.5927 24.8653 55.5696 24.1515 55.2027C22.5618 54.3848 21.8416 52.5042 22.5077 50.9102C22.6637 50.5365 24.3589 48.7193 27.4394 45.6236C31.6612 41.3813 32.1334 40.8563 32.1334 40.4068C32.1334 40.0555 31.9941 39.7676 31.6649 39.4383C30.8113 38.5848 30.7351 38.6395 25.5062 43.8485C22.9209 46.4242 20.5837 48.6421 20.3123 48.7775C19.6529 49.1066 18.3352 49.0849 17.5581 48.7318C16.4404 48.2242 15.6375 46.9156 15.6459 45.615C15.6534 44.4391 16.1089 43.8736 20.9679 39.0027C25.3595 34.6003 25.6603 34.2636 25.6603 33.7508C25.6603 33.0411 25.0986 32.4799 24.4076 32.4996C23.9784 32.5119 23.3383 33.0915 19.1986 37.2172C15.9663 40.4386 14.2913 41.9993 13.8836 42.1696C13.2133 42.4496 11.9189 42.4969 11.3058 42.2636C10.6643 42.0197 9.76364 41.1464 9.45694 40.4713C9.30252 40.1316 9.1763 39.5414 9.1763 39.1599C9.1763 37.8242 9.54604 37.3394 13.9007 32.965C17.912 28.9351 17.9941 28.8399 17.8944 28.3419C17.7652 27.6958 17.3968 27.3276 16.7502 27.1983C16.2524 27.0987 16.1604 27.1759 12.8485 30.4696L9.45648 33.8429L8.91907 33.2262C5.50471 29.31 3.38864 25.0779 2.78295 20.9541C2.48533 18.9282 2.48194 17.9165 2.76615 16.0419C3.32174 12.3785 4.93061 9.26595 7.51935 6.84658C8.77606 5.67218 9.61632 5.08836 11.1427 4.32949C14.2069 2.80571 17.6765 2.3025 21.1909 2.87213ZM8.93139 8.71435C8.28286 9.36272 8.54441 10.4764 9.42367 10.8107C9.99468 11.0277 10.7832 10.6415 10.9921 10.0421C11.4368 8.7666 9.88124 7.76435 8.93139 8.71435ZM6.93478 12.4887C6.43513 12.6932 6.14677 13.1286 5.80662 14.1925C4.87681 17.1008 4.94525 20.3663 6.00204 23.5168C6.73905 25.7138 8.63349 29.1168 9.25183 29.354C10.0667 29.6667 11.0703 29.0741 11.0703 28.2803C11.0703 28.0094 10.7308 27.2686 10.2123 26.4088C9.14609 24.64 8.49231 23.0867 8.07543 21.3311C7.62001 19.414 7.70954 16.642 8.28256 14.9121C8.74554 13.5147 8.65954 12.9482 7.92747 12.5697C7.4369 12.3158 7.37048 12.3104 6.93478 12.4887ZM60.689 16.1037C61.3246 16.38 70.7501 25.84 70.9644 26.4165C71.3619 27.4853 71.0126 28.9432 70.1774 29.7021C69.2325 30.5608 67.8873 30.7748 66.8427 30.2323C66.5283 30.0693 64.1085 27.763 61.466 25.108C56.2374 19.8548 56.3455 20.0008 56.5239 18.4183C56.7364 16.5317 58.9041 15.3269 60.689 16.1037ZM52.7188 20.5845C53.4142 20.7928 53.954 21.2887 59.0509 26.4027C62.1153 29.4776 64.7336 32.2153 64.8689 32.4865C65.4572 33.6655 64.9669 35.4549 63.8543 36.1914C63.1291 36.6712 61.8839 36.8216 61.0132 36.5341C60.5564 36.3833 59.2011 35.127 55.0515 31.0068C52.0978 28.0739 49.4963 25.3628 49.2703 24.9822C48.9518 24.4455 48.8621 24.0989 48.8714 23.441C48.8954 21.7561 49.8807 20.7487 51.8712 20.3738C51.9195 20.3647 52.3009 20.4598 52.7188 20.5845ZM19.6363 23.7914C18.97 24.303 18.8724 25.0851 19.3985 25.6967C19.6767 26.0202 19.902 26.1215 20.3433 26.1215C20.7845 26.1215 21.0096 26.0202 21.288 25.6967C21.7603 25.1474 21.7504 24.6577 21.2542 24.0681C20.8232 23.5559 20.1036 23.4326 19.6363 23.7914ZM48.4701 28.3766C48.9934 28.6079 50.3236 29.8556 53.8926 33.4628C58.4696 38.0889 58.6274 38.2684 58.802 39.0489C59.3638 41.5595 56.7393 43.6337 54.4808 42.4641C54.2689 42.3543 51.9343 40.0923 49.2929 37.4371C44.3685 32.4874 44.1591 32.2286 44.1556 31.0867C44.1536 30.4253 44.5683 29.4991 45.1083 28.9592C46.02 28.0476 47.245 27.8353 48.4701 28.3766ZM44.0441 36.1379C44.3169 36.2559 46.1812 38.0071 48.1871 40.0296C51.3624 43.2307 51.8576 43.7945 52.0143 44.3861C52.3216 45.5475 51.9764 46.6161 51.023 47.4531C50.0056 48.3463 48.707 48.4415 47.4684 47.7136C46.7068 47.2662 40.4242 40.9523 40.1069 40.3159C39.3419 38.781 39.948 36.9158 41.4577 36.1575C42.0383 35.8661 43.3916 35.8558 44.0441 36.1379Z" fill="black"/>
</svg>
