<svg width="591" height="513" viewBox="0 0 591 513" fill="none" xmlns="http://www.w3.org/2000/svg">
<path fill-rule="evenodd" clip-rule="evenodd" d="M131.562 0.669173C130.543 0.917482 125.539 1.79583 120.443 2.62105C82.745 8.72254 46.1434 32.5589 24.7147 64.9651C13.1184 82.5012 6.65123 97.9865 2.27185 118.704C-0.989515 134.137 -0.699205 163.3 2.88336 180.086C9.92001 213.057 25.986 244.507 51.1467 274.569L61.1446 286.514L58.1574 292.482C43.2317 322.308 63.619 358.162 96.8577 360.54C105.091 361.129 105.143 361.157 104.647 364.541C104.372 366.417 104.768 370.935 105.525 374.585C110.171 396.938 127.027 411.914 149.446 413.61C157.28 414.202 158.69 414.639 158.163 416.298C157.055 419.791 159.825 432.771 163.11 439.487C167.614 448.695 175.85 456.654 185.64 461.267C192.953 464.71 195.231 465.183 204.652 465.202L215.358 465.224L216.147 471.539C219.325 496.946 245.143 515.883 270.569 511.455C284.658 509 287.504 506.696 339.94 455.274L389.136 407.026L396.124 406.771C404.609 406.462 411.476 404.16 418.656 399.221C428.672 392.329 436.252 380.413 437.54 369.527L438.244 363.588L449.515 363.081C459.428 362.639 461.727 362.073 468.586 358.404C483.044 350.669 492.289 336.485 492.289 322.037V315.452L501.279 314.875C523.029 313.478 540.449 296.201 542.525 273.966L543.267 266.03L550.824 265.254C566.281 263.667 580.397 253.377 587.179 238.751C589.891 232.901 590.427 230.001 590.414 221.239C590.394 207.008 587.161 198.981 577.061 188.075L569.447 179.855L570.885 171.824C572.961 160.216 572.892 135.591 570.746 123.287C561.748 71.6929 528.037 29.6645 480.554 10.8412C446.289 -2.74044 403.798 -2.38589 365.664 11.8011C339.503 21.5333 322.582 32.0858 289.494 59.2985L285.87 62.2806L280.675 57.359C261.46 39.1497 233.38 21.4963 208.172 11.7776C189.149 4.44322 173.273 1.32516 151.945 0.732179C141.754 0.449281 132.58 0.420864 131.562 0.669173ZM169.858 23.0219C200.511 27.9893 233.866 44.4283 261.423 68.1511C276.349 80.999 323.589 123.807 324.011 124.865C324.541 126.196 310.93 131.871 303.526 133.406C290.673 136.072 277.098 134.578 265.907 129.267C263.416 128.085 257.659 123.835 253.114 119.823C239.819 108.087 241.123 107.54 209.588 138.075C195.088 152.113 182.723 164.921 182.109 166.536C179.37 173.742 187.858 182.022 195.143 179.251C196.769 178.633 207.576 168.868 219.156 157.553L240.211 136.977L246.292 141.441C259.147 150.877 273.21 155.082 291.541 154.972C305.598 154.886 315.959 152.544 327.268 146.895C344.149 138.462 352.956 128.982 350.327 122.069C349.714 120.457 338.645 109.729 325.729 98.2286C312.814 86.7285 302.199 76.9148 302.143 76.4219C302.088 75.9278 306.072 72.1673 310.998 68.0646C367.095 21.3492 429.862 8.8856 481.986 34.1106C521.345 53.1587 546.908 89.9702 551.453 134.146C552.084 140.261 552.291 149.057 551.915 153.695L551.234 162.127L527.012 138.016C499.269 110.401 494.718 107.411 479.147 106.57C457.585 105.405 438.993 118.468 433.339 138.753C431.462 145.482 431.208 145.787 428.163 144.929C426.401 144.434 420.515 144.041 415.079 144.057C407.033 144.079 403.892 144.69 398.185 147.344C388.78 151.714 380.467 159.636 375.78 168.69C372.312 175.394 371.917 177.273 371.882 187.267C371.86 193.381 372.119 199.733 372.458 201.38C373.013 204.072 372.486 204.529 367.24 205.878C355.052 209.011 342.766 219.344 337.476 230.905C335.377 235.494 334.83 239.093 334.806 248.418C334.791 254.872 335.196 261.638 335.705 263.452C336.547 266.449 336.263 266.829 332.617 267.6C326.092 268.979 314.669 275.611 310.093 280.676C305.205 286.088 300.304 295.249 298.934 301.538C297.269 309.186 298.122 320.636 300.925 328.232C303.381 334.888 306.317 338.242 335.254 367.445L366.899 399.38L322.426 443.217C297.966 467.328 276.285 487.957 274.246 489.06C272.044 490.25 267.534 491.082 263.129 491.11C249.322 491.199 238.187 481.021 236.848 467.091C235.736 455.507 236.468 454.524 275.632 415.125C308.225 382.337 311.926 378.206 311.926 374.609C311.926 368.959 307.245 364.541 301.254 364.541C296.864 364.541 294.85 366.331 258.269 402.705C237.161 423.693 218.112 441.761 215.937 442.854C210.453 445.61 199.311 445.425 193.589 442.484C180.847 435.928 175.074 420.854 180.413 408.077C181.664 405.082 195.252 390.516 219.944 365.702C253.784 331.697 257.569 327.489 257.569 323.886C257.569 321.07 256.453 318.762 253.814 316.123C246.972 309.281 246.361 309.72 204.448 351.473C183.725 372.119 164.991 389.897 162.816 390.982C157.53 393.62 146.968 393.446 140.739 390.616C131.78 386.547 125.344 376.058 125.412 365.633C125.472 356.207 129.123 351.674 168.071 312.631C203.272 277.343 205.683 274.644 205.683 270.534C205.683 264.845 201.181 260.347 195.642 260.505C192.202 260.603 187.071 265.249 153.889 298.319C127.98 324.141 114.554 336.651 111.286 338.016C105.913 340.26 95.5371 340.639 90.6228 338.769C85.4813 336.814 78.2617 329.814 75.8033 324.403C74.5655 321.68 73.5538 316.949 73.5538 313.891C73.5538 303.185 76.5175 299.299 111.423 264.235C143.576 231.933 144.234 231.17 143.435 227.178C142.399 221.999 139.446 219.048 134.263 218.011C130.273 217.213 129.536 217.832 102.989 244.233L75.7996 271.272L71.4919 266.329C44.1237 234.938 27.1621 201.015 22.3071 167.96C19.9215 151.721 19.8943 143.612 22.1724 128.586C26.6258 99.2218 39.5219 74.2724 60.2723 54.8796C70.3456 45.4661 77.0808 40.7864 89.3159 34.7036C113.877 22.4895 141.688 18.456 169.858 23.0219ZM71.5907 69.851C66.3923 75.0481 68.4888 83.9749 75.5366 86.6545C80.1136 88.3938 86.4337 85.298 88.1089 80.4937C91.6729 70.2698 79.2043 62.2361 71.5907 69.851ZM55.5866 100.105C51.5816 101.744 49.2702 105.234 46.5437 113.762C39.0907 137.074 39.6393 163.249 48.1101 188.502C54.0177 206.112 69.2028 233.389 74.1592 235.291C80.6905 237.797 88.7353 233.047 88.7353 226.684C88.7353 224.513 86.0137 218.575 81.858 211.683C73.3116 197.505 68.0712 185.054 64.7296 170.982C61.0791 155.615 61.7968 133.396 66.3899 119.53C70.101 108.329 69.4116 103.788 63.5436 100.754C59.6114 98.719 59.079 98.6758 55.5866 100.105ZM486.46 129.081C491.555 131.296 567.106 207.124 568.824 211.745C572.01 220.312 569.21 231.998 562.516 238.081C554.942 244.964 544.159 246.679 535.786 242.331C533.266 241.024 513.87 222.538 492.688 201.256C450.778 159.149 451.644 160.319 453.074 147.634C454.778 132.512 472.153 122.855 486.46 129.081ZM422.574 164.998C428.148 166.667 432.475 170.642 473.33 211.634C497.893 236.281 518.88 258.226 519.965 260.4C524.68 269.85 520.75 284.193 511.832 290.097C506.019 293.943 496.038 295.148 489.059 292.844C485.397 291.635 474.534 281.565 441.272 248.539C417.596 225.03 396.744 203.299 394.932 200.248C392.379 195.946 391.66 193.168 391.735 187.894C391.927 174.389 399.825 166.314 415.78 163.309C416.167 163.236 419.224 163.998 422.574 164.998ZM157.397 190.703C152.056 194.804 151.274 201.073 155.491 205.975C157.721 208.568 159.527 209.38 163.064 209.38C166.601 209.38 168.405 208.568 170.637 205.975C174.422 201.572 174.343 197.647 170.366 192.921C166.911 188.815 161.143 187.827 157.397 190.703ZM388.518 227.456C392.713 229.31 403.375 239.311 431.983 268.225C468.67 305.306 469.935 306.745 471.335 313.001C475.838 333.125 454.801 349.751 436.698 340.376C434.999 339.496 416.286 321.365 395.113 300.082C355.641 260.407 353.963 258.332 353.935 249.179C353.919 243.878 357.243 236.454 361.571 232.126C368.879 224.819 378.698 223.117 388.518 227.456ZM353.041 289.668C355.228 290.614 370.171 304.651 386.25 320.862C411.702 346.521 415.671 351.04 416.927 355.782C419.39 365.092 416.623 373.657 408.981 380.366C400.826 387.526 390.417 388.289 380.489 382.454C374.384 378.868 324.025 328.258 321.482 323.157C315.35 310.854 320.208 295.903 332.309 289.825C336.963 287.489 347.811 287.407 353.041 289.668Z" fill="black"/>
</svg>
