<svg width="64" height="64" viewBox="0 0 64 64" fill="none" xmlns="http://www.w3.org/2000/svg">
<path d="M23.8017 0.267222C23.5504 0.521085 23.5371 0.708141 23.5371 4.27558C23.5371 7.84301 23.5504 8.03006 23.8017 8.28393C23.9471 8.4309 24.1851 8.55115 24.3305 8.55115C24.8992 8.55115 24.529 9.0856 22.4794 11.1699L20.3504 13.3211L20.3636 20.7099L20.3769 28.1119L14.7305 33.8171L9.07108 39.5358L8.31735 42.5554C7.88099 44.2922 7.45786 45.6952 7.32562 45.8421C7.11405 46.0826 7.08761 46.0826 6.59835 45.6284C6.17521 45.2543 5.97686 45.1608 5.52727 45.1608C4.98513 45.1608 4.91901 45.2143 2.48595 47.6726C0 50.1845 0 50.1845 0 50.7858V51.3737L6.25455 57.6801C12.3769 63.8798 12.5091 64 13.0248 64C13.5273 64 13.6462 63.8931 16.119 61.4079L18.6843 58.8025L18.6049 58.1478C18.5521 57.7336 18.5786 57.4396 18.6843 57.3327C18.7769 57.2392 19.7553 57.1857 21.8049 57.1857H24.7801L28.3901 53.5516L32 49.904L35.6099 53.5516L39.2199 57.1857H42.1951C44.2447 57.1857 45.2231 57.2392 45.3157 57.3327C45.4214 57.4396 45.4479 57.7336 45.3951 58.1478L45.3157 58.8025L47.881 61.4079C50.3538 63.9065 50.4727 64 50.9752 64C51.4909 64 51.6099 63.8798 57.7455 57.6801L64 51.3737V50.7858C64 50.1979 63.9868 50.1713 61.514 47.6726C59.081 45.2009 59.0281 45.1608 58.4727 45.1608C58.0231 45.1608 57.8248 45.2543 57.4017 45.6284C56.9123 46.0826 56.886 46.0826 56.6744 45.8421C56.5422 45.6952 56.119 44.2922 55.6826 42.5554L54.929 39.5358L49.2826 33.8305L43.6364 28.1252V21.3111V14.4969L42.0496 11.8246C41.1769 10.3549 40.4629 9.01879 40.4629 8.8451C40.4629 8.57788 40.5157 8.55115 41.2562 8.55115C42.6182 8.55115 42.5786 8.68476 42.5786 4.27558C42.5786 0.708141 42.5653 0.521085 42.314 0.267222C42.0496 0 41.8777 0 33.0578 0C24.2381 0 24.0661 0 23.8017 0.267222ZM40.4629 4.27558V6.41336H33.0578H25.6529V4.27558V2.13779H33.0578H40.4629V4.27558ZM38.3471 9.31274C38.3471 10.061 38.4 10.1679 39.9339 12.7599L41.5207 15.4321V20.937V26.4417L40.6083 26.4284C40.1058 26.4284 39.6297 26.4685 39.5504 26.5085C39.4447 26.5754 39.4049 26.2948 39.4049 25.6V24.5845H38.3471H37.2892V26.1211V27.6576L36.6017 27.1231C36.2182 26.8293 35.7422 26.562 35.5438 26.5219C35.1868 26.4418 35.1735 26.415 35.1735 25.5065V24.5845H34.1157H33.0578V25.6268C33.0578 26.6155 33.0447 26.6822 32.714 26.8692C32.357 27.0564 31.8017 27.6576 31.7091 27.9516C31.6695 28.0585 31.5504 28.0318 31.2992 27.8446C30.9553 27.5909 30.9553 27.5641 30.9422 26.081V24.5845H29.8843H28.8265V25.8539V27.1098L28.324 27.2568C27.7422 27.4038 26.7108 28.1119 26.7108 28.3524C26.7108 28.4593 26.671 28.4726 26.5786 28.3791C26.4727 28.2723 26.4727 28.1252 26.5786 27.8714C26.6578 27.6576 26.7108 26.0676 26.7108 23.9031V20.309H25.6529H24.5951V23.3554V26.4016H23.5371H22.4794V20.456V14.5103L24.5951 12.3591L26.7108 10.2079V9.37954V8.55115H32.529H38.3471V9.31274ZM24.1322 28.9269C24.8066 29.595 24.714 29.742 21.6595 32.8284L18.843 35.6744L19.676 36.5028L20.4958 37.3445L23.3653 34.4318C24.9388 32.8418 26.2479 31.5324 26.2744 31.5324C26.3008 31.5324 26.314 31.5991 26.314 31.6928C26.314 31.7729 26.4727 32.0535 26.671 32.3073C26.9487 32.6814 26.9884 32.8016 26.8297 32.8418C26.4066 32.9888 25.6529 33.9641 25.4545 34.6455C25.2826 35.2468 25.0447 35.5541 23.5769 37.0371L21.8843 38.7474L22.6116 39.4823C23.0083 39.8831 23.3917 40.2171 23.4578 40.2171C23.5371 40.2171 24.1322 39.6693 24.7934 39.0146L25.9968 37.8121L26.6843 38.5202L27.3719 39.2284L26.1818 40.4175C25.5207 41.0722 24.9917 41.6735 24.9917 41.7536C24.9917 41.8339 25.3223 42.2212 25.719 42.6221L26.4462 43.3436L27.7025 42.0876L28.9587 40.8184L29.6462 41.5265L30.3471 42.2212L27.6629 44.9336C26.1951 46.4167 24.9917 47.686 24.9917 47.7661C24.9917 47.9399 26.3405 49.3027 26.5123 49.3027C26.5917 49.3027 27.2132 48.7281 27.9008 48.0334C28.5884 47.3386 29.1968 46.7641 29.2496 46.7641C29.2892 46.7641 29.3818 46.8844 29.4214 47.0446C29.4744 47.1916 29.6992 47.5256 29.924 47.7795L30.3207 48.2471L27.0413 51.5741L23.7487 54.901L20.7471 54.9411L17.7322 54.9813L17.2562 55.4489L16.7934 55.9031L12.7604 51.8414L8.74049 47.7929L9.16364 47.2851C9.53388 46.8576 9.67934 46.4168 10.3141 43.838L11.0281 40.8851L17.124 34.739C21.5801 30.2497 23.2992 28.5929 23.5108 28.5929C23.6826 28.5929 23.9604 28.7399 24.1322 28.9269ZM39.1669 32.962L43.5042 37.3445L44.324 36.5028L45.157 35.6744L42.3405 32.8284C39.3653 29.8221 39.2462 29.6351 39.7752 29.0205C39.8942 28.8601 40.1719 28.6998 40.3703 28.6464C40.7273 28.5661 41.0843 28.9002 46.8629 34.7256L52.9719 40.8851L53.686 43.838C54.3207 46.4168 54.4661 46.8576 54.8364 47.2851L55.2595 47.7929L51.2396 51.8414L47.2066 55.9031L46.7438 55.4489L46.2678 54.9813L43.2529 54.9411L40.2513 54.901L35.7818 50.385C30.9553 45.5081 30.9686 45.5215 31.6033 44.8134C32.1983 44.1854 32.3968 44.3056 34.9752 46.8978C36.2843 48.2205 37.4214 49.3027 37.4877 49.3027C37.6595 49.3027 39.0083 47.9399 39.0083 47.7661C39.0083 47.6994 36.4165 45.0137 33.2562 41.8205C29.2099 37.732 27.5042 35.9149 27.5042 35.7144C27.5042 35.3804 28.0066 34.7657 28.2975 34.7256C28.4033 34.7124 28.6149 34.7124 28.7604 34.7256C28.9058 34.739 30.7703 36.5028 33.2562 39.0146L37.5008 43.2902L38.281 42.4885L39.0744 41.6869L33.6794 36.2355C29.0644 31.5591 28.2975 30.7308 28.2975 30.3966C28.2975 29.8756 28.7604 29.3946 29.276 29.3946C29.6331 29.3946 30.3339 30.0493 35.0678 34.8326L40.4629 40.2839L41.2562 39.4823L42.0496 38.694L37.8182 34.405C35.3322 31.8931 33.5868 30.0091 33.5735 29.8622C33.5604 29.7152 33.5604 29.5015 33.5735 29.3946C33.6132 29.1006 34.2214 28.5929 34.5521 28.5929C34.7504 28.5929 36.1521 29.929 39.1669 32.962ZM10.7504 53.1507L15.8678 58.3215L14.4396 59.7645L13.0248 61.1941L7.86777 55.9832L2.71074 50.7725L4.09917 49.3695C4.86612 48.5946 5.51405 47.9666 5.55371 47.9666C5.59339 47.9666 7.92066 50.2915 10.7504 53.1507ZM59.9008 49.3695L61.2892 50.7725L56.1322 55.9832L50.9752 61.1941L49.5604 59.7645L48.1322 58.3215L53.2496 53.1507C56.0794 50.2915 58.4066 47.9666 58.4462 47.9666C58.486 47.9666 59.1339 48.5946 59.9008 49.3695Z" fill="black"/>
<path d="M19.1339 8.64465C16.8993 9.95405 15.3521 11.1031 13.7256 12.6797C11.4248 14.8977 9.71905 17.2225 8.34384 20.015C6.40003 23.9165 5.54053 27.6175 5.54053 32.0667C5.54053 33.9908 5.79177 36.6763 6.02979 37.438C6.12235 37.732 6.13558 37.732 7.28598 37.4647C7.81492 37.3445 8.19838 37.1841 8.19838 37.0906C8.19838 36.9971 8.10583 36.329 8.00003 35.5941C7.73558 33.8438 7.73558 30.37 8.00003 28.5928C8.8331 22.8476 11.6761 17.5432 15.9339 13.7352C17.3224 12.4927 19.4381 11.0229 20.919 10.2747L21.9504 9.75364L21.7654 9.31271C21.6595 9.08558 21.4744 8.63129 21.329 8.32399C21.1968 8.00331 20.9983 7.74945 20.8794 7.74945C20.7735 7.74945 19.9802 8.15029 19.1339 8.64465Z" fill="black"/>
<path d="M44.6678 9.71356C44.3901 10.1946 44.1653 10.6622 44.1653 10.7424C44.1653 10.8225 44.5091 11.0898 44.9058 11.3436C46.1884 12.1186 47.7487 13.3745 48.9916 14.6305C52.4429 18.091 54.7437 22.3532 55.7487 27.1766C56.2115 29.3679 56.3305 33.2826 56.0132 35.4739C55.8941 36.289 55.8016 37.0105 55.8016 37.104C55.8016 37.2642 57.7587 37.7586 57.8909 37.625C58.3537 37.144 58.6049 30.9177 58.2479 28.4059C57.5867 23.5557 55.5901 18.9194 52.5355 15.0981C51.5967 13.9224 49.4545 11.8113 48.3305 10.9428C47.5768 10.3549 45.3024 8.81836 45.1967 8.81836C45.1835 8.81836 44.9322 9.2192 44.6678 9.71356Z" fill="black"/>
<path d="M16.0793 16.3273C13.0776 19.4538 11.1074 23.2083 10.1421 27.5908C9.89087 28.7666 9.8512 29.3277 9.8512 32.1603C9.8512 33.9373 9.87765 35.4071 9.91731 35.4471C9.95699 35.4738 10.4595 35.4338 11.0281 35.3536L12.0727 35.2066L12.0859 32.2003C12.1124 28.8868 12.2049 28.1787 13.0248 25.7068C13.9768 22.8208 15.471 20.3357 17.6132 18.091L19.028 16.6078L18.3668 15.8196C18.0098 15.3921 17.6396 15.0046 17.5603 14.9778C17.481 14.9511 16.8198 15.5523 16.0793 16.3273Z" fill="black"/>
<path d="M45.6462 15.7929L44.9719 16.6212L46.3867 18.091C49.0049 20.83 50.6314 23.8496 51.5305 27.6576C51.8083 28.82 51.8744 29.5149 51.9273 31.6125L51.9934 34.1645L52.8 34.258C53.2363 34.2981 53.7388 34.3382 53.924 34.3382H54.2413L54.1752 31.5591C54.1091 28.5395 53.9108 27.2969 53.1437 24.9452C52.5884 23.2217 51.2 20.4692 50.1422 18.9862C49.2695 17.7436 46.7305 14.9645 46.4661 14.9645C46.4 14.9645 46.0297 15.3386 45.6462 15.7929Z" fill="black"/>
<path d="M30.8892 53.0573C30.7305 54.6339 30.638 54.5136 32.0132 54.5136H33.2297L33.1371 53.6985C33.0975 53.2443 33.0578 52.7231 33.0578 52.5629C33.0578 52.2555 33.0182 52.2421 32.0132 52.2421H30.9818L30.8892 53.0573Z" fill="black"/>
<path d="M27.8346 56.5445C27.7024 57.1725 27.5041 58.4284 27.5437 58.4685C27.557 58.4819 28.0727 58.562 28.681 58.6421C30.1223 58.8292 33.838 58.8292 35.3454 58.6421C36.4297 58.4952 36.509 58.4685 36.4429 58.2012C36.4032 58.0409 36.3371 57.6134 36.2842 57.2392C36.1653 56.2237 36.1653 56.2237 35.028 56.3841C33.8115 56.5579 30.109 56.5579 28.9586 56.3841C28.4825 56.3174 28.0594 56.2505 28.0066 56.2505C27.9537 56.2505 27.8744 56.3841 27.8346 56.5445Z" fill="black"/>
</svg>
