<svg width="64" height="64" viewBox="0 0 64 64" fill="none" xmlns="http://www.w3.org/2000/svg">
<path fill-rule="evenodd" clip-rule="evenodd" d="M22.9336 0.316231C22.3094 0.663434 21.5918 1.66295 21.3981 2.45518C21.3182 2.7814 21.2529 3.95299 21.2529 5.0589V7.06957H15.383C11.2869 7.06957 9.41964 7.12177 9.20337 7.24256C8.56904 7.59634 8.51265 8.81049 9.11223 9.20347C9.27699 9.31139 11.3542 9.36589 15.3064 9.36589H21.2529V10.5906V11.8153H12.5644H3.87587V10.5906V9.36589H4.72734C5.75059 9.36589 6.12613 9.05896 6.12613 8.22293C6.12613 7.34942 5.69596 7.06957 4.35279 7.06957C3.13365 7.06957 2.6991 7.24822 2.26168 7.92915C2.02353 8.29994 2.00066 8.53523 2.00066 10.6166C2.00066 14.0497 2.05841 14.1116 5.25816 14.1116C6.92146 14.1116 7.39003 14.1546 7.34539 14.3031C7.31364 14.4083 6.14063 18.7139 4.73872 23.871L2.18967 33.2476L1.68887 33.2483C1.06604 33.2489 0.452722 33.6924 0.179441 34.3394C0.00954571 34.7417 -0.0189577 35.1589 0.0246725 36.6045C0.073178 38.2112 0.115433 38.4712 0.478349 39.397C0.925652 40.5381 1.77413 41.5846 2.66998 42.1001C3.68096 42.6821 4.59746 42.7665 9.26586 42.7072C13.5318 42.6531 13.7153 42.6387 14.4127 42.2994C15.4244 41.8073 16.4893 40.5655 16.9523 39.3378C17.2813 38.4654 17.3186 38.1961 17.3559 36.4351L17.3969 34.4939L16.9703 33.9237C16.5989 33.4276 16.455 33.3446 15.8615 33.2842L15.1793 33.215L12.6348 23.8546C11.2352 18.7065 10.0642 14.4083 10.0325 14.3031C9.98721 14.1525 10.7912 14.1116 13.7936 14.1116H17.6123L17.6511 16.982C17.7055 21.004 17.5071 20.5764 21.7433 25.8055C24.9828 29.8043 25.3972 30.4248 25.2151 31.0059C25.1792 31.1204 24.9779 31.2562 24.7679 31.3076C24.2589 31.4322 23.9208 31.8729 23.7546 32.6286C23.6629 33.0457 23.6299 35.3956 23.6543 39.7686L23.6906 46.2869L24.0414 46.6562C24.4709 47.1084 24.7451 47.1213 25.1725 46.7095L25.5006 46.3936L25.5332 39.9354L25.566 33.4772H31.9416H38.3174L38.3493 47.5997L38.3812 61.7222H31.9422H25.5034V56.2109C25.5034 50.9038 25.4942 50.6884 25.2533 50.3935C24.9374 50.0068 24.3685 50.0006 23.9858 50.3799L23.6906 50.6724L23.651 56.006C23.6033 62.4342 23.6317 62.8286 24.1904 63.5127L24.6033 64.0185H31.9195H39.2357L39.6168 63.6258C39.8263 63.4099 40.0552 62.9794 40.1257 62.6692C40.2667 62.0474 40.314 33.4936 40.1754 32.6453C40.0746 32.0285 39.4816 31.2923 39.0347 31.2293C38.7022 31.1823 38.6913 31.1501 38.6548 30.1126C38.6043 28.6791 38.6684 28.4451 39.3624 27.5285C40.3004 26.2897 40.8189 25.4427 41.3035 24.3585C42.3142 22.0977 42.6304 20.2728 42.6304 16.7007V14.1116H48.3319C52.8405 14.1116 54.0213 14.1517 53.9757 14.3031C53.944 14.4083 52.7731 18.7065 51.3735 23.8546L48.8289 33.215L48.1469 33.2842C47.5533 33.3446 47.4092 33.4276 47.038 33.9237L46.6113 34.4939L46.6523 36.4351C46.6895 38.1961 46.7269 38.4654 47.056 39.3378C47.521 40.5711 48.5854 41.8102 49.5956 42.2943C50.2468 42.6063 50.5408 42.642 52.5483 42.6516C54.7453 42.6624 54.7813 42.6573 55.0173 42.3012C55.3002 41.8742 55.3273 41.232 55.0797 40.8165C54.9198 40.5483 54.6911 40.5111 52.7356 40.435C50.8559 40.3621 50.5025 40.3082 50.0688 40.0281C48.976 39.323 48.506 38.2981 48.506 36.6206V35.544H55.3193H62.1326L62.1314 36.5774C62.1286 38.9434 60.864 40.4428 58.8716 40.4428C58.3763 40.4428 58.2314 40.5112 58.0163 40.8462C57.6903 41.3537 57.6894 41.6738 58.0125 42.177C58.3448 42.6942 58.9199 42.8159 59.9725 42.5914C61.6464 42.2344 63.0827 40.8682 63.6474 39.096C64.0279 37.902 64.135 35.0644 63.8272 34.3355C63.5554 33.6921 62.9409 33.2489 62.3194 33.2483L61.8186 33.2476L59.2695 23.871C57.8676 18.7139 56.6947 14.4083 56.6629 14.3031C56.6183 14.1546 57.0868 14.1116 58.7502 14.1116C61.9357 14.1116 62.0076 14.033 62.0076 10.5424C62.0076 8.53631 61.9839 8.29856 61.7465 7.92915C61.1725 7.03542 61.5715 7.06957 51.7002 7.06957H42.6304L42.6292 6.41895C42.6274 5.46458 42.1279 4.27157 41.4952 3.71035C40.7651 3.06278 40.1345 2.88766 38.8493 2.97584L37.7559 3.05069L37.6236 2.44907C37.4567 1.68959 36.7181 0.676141 36.0672 0.313169C35.3562 -0.0833296 33.395 -0.0787373 32.6758 0.32113C32.3922 0.47881 32.1194 0.688541 32.0697 0.786975C32.0034 0.918326 31.9232 0.903631 31.7684 0.732172C31.3169 0.23188 30.649 0.0275061 29.4765 0.0308737C28.3181 0.0342412 27.4247 0.330162 27.1941 0.786975C27.1277 0.918326 27.0475 0.903631 26.8928 0.732172C26.4414 0.23188 25.7734 0.0275061 24.6011 0.0308737C23.7452 0.0333228 23.3076 0.108184 22.9336 0.316231ZM25.8215 2.69966L26.1284 3.07534V7.52883V11.9823L26.4354 12.358C26.8264 12.8369 27.3056 12.8369 27.6968 12.358L28.0036 11.9823V7.52883V3.07534L28.3105 2.69966C28.5816 2.36762 28.7264 2.32384 29.5517 2.32384C30.412 2.32384 30.5063 2.35567 30.7449 2.72722C30.9936 3.11408 31.004 3.31064 31.004 7.55639V11.9823L31.3109 12.358C31.702 12.8369 32.1813 12.8369 32.5722 12.358L32.8792 11.9823V7.52883V3.07534L33.1861 2.69966C33.4572 2.36762 33.6019 2.32384 34.4272 2.32384C35.2875 2.32384 35.3819 2.35567 35.6204 2.72722C35.869 3.11408 35.8795 3.31064 35.8795 7.55639V11.9823L36.1865 12.358C36.5775 12.8369 37.0568 12.8369 37.4479 12.358C37.7523 11.9854 37.7548 11.9589 37.7548 9.05498V6.12745L38.1201 5.67999C38.4375 5.29145 38.5783 5.23251 39.189 5.23251C40.0066 5.23251 40.5964 5.55046 40.6981 6.04602C40.7373 6.23784 40.7522 9.49173 40.7311 13.2767L40.6926 20.1586L40.3406 21.3833C39.902 22.9091 39.1445 24.3979 38.0173 25.9489C36.9745 27.3839 36.7546 28.0596 36.7546 29.8305V31.1045H31.9591H27.1634L27.0904 30.3493C26.9586 28.9878 26.6146 28.4469 23.1894 24.2155C21.3832 21.9843 19.8146 19.9382 19.7039 19.6687C19.5431 19.2773 19.5026 18.6695 19.5026 16.6454V14.1116H20.3778H21.2529V15.2391C21.2529 16.148 21.3032 16.4448 21.5121 16.77C21.8702 17.3278 22.5107 17.3278 22.8689 16.77C23.1221 16.376 23.1282 16.2122 23.1282 9.74861C23.1282 3.28507 23.1341 3.12112 23.3873 2.72722C23.6258 2.35567 23.7202 2.32384 24.5806 2.32384C25.4058 2.32384 25.5506 2.36762 25.8215 2.69966ZM60.1324 10.5906V11.8153H51.3814H42.6304V10.5906V9.36589H51.3814H60.1324V10.5906ZM10.9963 25.0375L13.232 33.2476H8.74143C6.27164 33.2476 4.25092 33.1967 4.25092 33.1344C4.25092 32.9356 8.68081 16.7296 8.72142 16.7796C8.74293 16.8058 9.76668 20.5219 10.9963 25.0375ZM59.7574 33.1317C59.7574 33.1954 57.7367 33.2476 55.2669 33.2476H50.7765L53.0375 24.9431L55.2984 16.6387L57.528 24.8272C58.7542 29.331 59.7574 33.0681 59.7574 33.1317ZM15.5022 36.6206C15.5022 38.2956 15.0381 39.3099 13.9396 40.0358C13.4597 40.353 13.2657 40.3683 9.12647 40.4172C6.21914 40.4512 4.60258 40.4112 4.1664 40.2938C2.72361 39.9058 1.87913 38.5348 1.87688 36.5774L1.87563 35.544H8.68893H15.5022V36.6206ZM27.8356 36.2833C27.5387 36.685 27.5691 37.5738 27.8917 37.9314C28.1384 38.2046 28.3934 38.2231 31.9513 38.2231C35.693 38.2231 35.7516 38.2182 36.0221 37.8872C36.3588 37.4746 36.3808 36.7338 36.0686 36.3114C35.8495 36.0151 35.6904 36.0032 31.9416 36.0032C28.3229 36.0032 28.0275 36.0234 27.8356 36.2833Z" fill="black"/>
</svg>
