<svg width="64" height="64" viewBox="0 0 64 64" fill="none" xmlns="http://www.w3.org/2000/svg">
<path fill-rule="evenodd" clip-rule="evenodd" d="M14.9296 0.0835411C14.814 0.114604 14.2461 0.224483 13.6678 0.327717C9.38987 1.091 5.23634 4.07288 2.80462 8.12682C1.48867 10.3206 0.754779 12.2577 0.257809 14.8494C-0.11229 16.7801 -0.0793456 20.4283 0.327203 22.5282C1.12572 26.6528 2.94888 30.5871 5.80411 34.3478L6.93867 35.8421L6.59968 36.5887C4.90592 40.3199 7.21946 44.8051 10.9914 45.1026C11.9257 45.1763 11.9316 45.1798 11.8753 45.6031C11.8441 45.8378 11.889 46.403 11.9749 46.8596C12.5022 49.6559 14.415 51.5294 16.9591 51.7416C17.8481 51.8156 18.0081 51.8703 17.9483 52.0778C17.8225 52.5148 18.1369 54.1386 18.5097 54.9787C19.0208 56.1306 19.9554 57.1263 21.0664 57.7033C21.8962 58.1341 22.1547 58.1932 23.2238 58.1956L24.4387 58.1984L24.5283 58.9883C24.8889 62.1667 27.8187 64.5357 30.7041 63.9818C32.3029 63.6746 32.6259 63.3864 38.5763 56.9536L44.159 50.9179L44.952 50.886C45.9149 50.8474 46.6942 50.5594 47.5089 49.9415C48.6455 49.0793 49.5057 47.5887 49.6519 46.2269L49.7318 45.4839L51.0108 45.4205C52.1357 45.3652 52.3966 45.2944 53.175 44.8354C54.8157 43.8678 55.8648 42.0934 55.8648 40.286V39.4622L56.885 39.39C59.3531 39.2153 61.33 37.0539 61.5655 34.2724L61.6497 33.2796L62.5073 33.1825C64.2614 32.984 65.8632 31.6967 66.6329 29.8671C66.9406 29.1352 67.0014 28.7725 67 27.6764C66.9977 25.8961 66.6308 24.8919 65.4847 23.5276L64.6206 22.4993L64.7838 21.4946C65.0194 20.0425 65.0116 16.962 64.768 15.4228C63.747 8.96846 59.9214 3.71079 54.5331 1.35604C50.6447 -0.342994 45.8229 -0.298641 41.4954 1.47612C38.5267 2.6936 36.6065 4.01369 32.8517 7.41794L32.4404 7.791L31.8509 7.17532C29.6704 4.89737 26.4839 2.68897 23.6233 1.47318C21.4646 0.555666 19.663 0.165604 17.2427 0.091423C16.0862 0.0560331 15.0451 0.0524782 14.9296 0.0835411ZM19.2754 2.87982C22.7539 3.50123 26.539 5.55771 29.6662 8.52539C31.36 10.1326 36.7208 15.4878 36.7687 15.6202C36.8288 15.7867 35.2842 16.4966 34.444 16.6886C32.9855 17.0221 31.445 16.8352 30.175 16.1709C29.8924 16.023 29.2391 15.4913 28.7233 14.9894C27.2146 13.5213 27.3626 13.4529 23.784 17.2727C22.1385 19.0288 20.7353 20.6311 20.6657 20.8331C20.3548 21.7346 21.3181 22.7704 22.1448 22.4237C22.3293 22.3464 23.5557 21.1249 24.8697 19.7094L27.2591 17.1354L27.9491 17.6938C29.4079 18.8742 31.0038 19.4003 33.084 19.3865C34.6792 19.3757 35.8549 19.0828 37.1383 18.3761C39.0539 17.3211 40.0533 16.1352 39.755 15.2704C39.6854 15.0687 38.4293 13.7267 36.9636 12.288C35.498 10.8494 34.2934 9.62171 34.2871 9.56004C34.2808 9.49823 34.7329 9.0278 35.2919 8.51456C41.6578 2.67057 48.7806 1.1114 54.6956 4.26699C59.162 6.64987 62.0629 11.2549 62.5787 16.7812C62.6503 17.5462 62.6738 18.6465 62.6311 19.2267L62.5538 20.2816L59.8051 17.2653C56.6569 13.8108 56.1404 13.4367 54.3734 13.3315C51.9266 13.1858 49.8168 14.8199 49.1752 17.3575C48.9622 18.1993 48.9333 18.2375 48.5878 18.1301C48.3878 18.0682 47.7199 18.0191 47.103 18.0211C46.19 18.0238 45.8335 18.1002 45.1859 18.4322C44.1186 18.9789 43.1753 19.97 42.6434 21.1026C42.2498 21.9412 42.205 22.1763 42.201 23.4265C42.1985 24.1914 42.2279 24.986 42.2664 25.192C42.3294 25.5288 42.2696 25.586 41.6743 25.7547C40.2912 26.1467 38.897 27.4393 38.2967 28.8855C38.0585 29.4596 37.9964 29.9099 37.9937 31.0764C37.992 31.8838 38.0379 32.7302 38.0957 32.9571C38.1912 33.332 38.159 33.3796 37.7453 33.476C37.0048 33.6485 35.7085 34.4782 35.1892 35.1118C34.6346 35.7888 34.0784 36.9348 33.9229 37.7216C33.734 38.6783 33.8308 40.1107 34.1489 41.0609C34.4276 41.8936 34.7607 42.3132 38.0445 45.9664L41.6356 49.9614L36.5888 55.4453C33.8131 58.4616 31.3527 61.0422 31.1213 61.1802C30.8715 61.3291 30.3597 61.4331 29.8598 61.4366C28.293 61.4478 27.0294 60.1745 26.8774 58.4319C26.7512 56.9828 26.8343 56.8598 31.2786 51.9311C34.9773 47.8294 35.3973 47.3126 35.3973 46.8626C35.3973 46.1558 34.8661 45.6031 34.1862 45.6031C33.688 45.6031 33.4595 45.827 29.3083 50.3774C26.9129 53.0029 24.7513 55.2632 24.5045 55.3999C23.8821 55.7447 22.6177 55.7215 21.9684 55.3536C20.5225 54.5335 19.8673 52.6478 20.4732 51.0494C20.6152 50.6747 22.1571 48.8525 24.9592 45.7484C28.7993 41.4944 29.2288 40.968 29.2288 40.5173C29.2288 40.165 29.1022 39.8763 28.8027 39.5461C28.0263 38.6902 27.957 38.7451 23.2007 43.9683C20.849 46.5511 18.7231 48.7751 18.4763 48.9108C17.8764 49.2408 16.6779 49.2191 15.971 48.8651C14.9543 48.356 14.224 47.0439 14.2317 45.7397C14.2385 44.5606 14.6528 43.9935 19.0726 39.1093C23.0672 34.6948 23.3408 34.3572 23.3408 33.8431C23.3408 33.1314 22.8299 32.5687 22.2014 32.5884C21.811 32.6007 21.2288 33.1819 17.4633 37.3189C14.5231 40.5492 12.9995 42.1141 12.6287 42.2849C12.019 42.5656 10.8415 42.613 10.2838 42.3791C9.70039 42.1345 8.88111 41.2589 8.60213 40.582C8.46167 40.2413 8.34686 39.6495 8.34686 39.2669C8.34686 37.9276 8.68318 37.4415 12.6442 33.0551C16.293 29.0141 16.3676 28.9187 16.277 28.4193C16.1594 27.7714 15.8243 27.4023 15.2361 27.2725C14.7833 27.1727 14.6997 27.2501 11.6872 30.5529L8.60171 33.9354L8.11288 33.317C5.00714 29.3901 3.08235 25.1464 2.5314 21.0113C2.26068 18.9798 2.2576 17.9654 2.51612 16.0857C3.02149 12.4123 4.48493 9.29115 6.83968 6.86515C7.98279 5.68754 8.7471 5.10212 10.1355 4.34118C12.9227 2.81322 16.0787 2.30864 19.2754 2.87982ZM8.12409 8.73804C7.53417 9.38819 7.77208 10.5049 8.57187 10.8401C9.09126 11.0577 9.80847 10.6704 9.99857 10.0694C10.403 8.79043 8.98808 7.78543 8.12409 8.73804ZM6.30795 12.5228C5.85346 12.7278 5.59116 13.1644 5.28176 14.2312C4.436 17.1475 4.49825 20.4219 5.45952 23.581C6.12991 25.784 7.85311 29.1963 8.41556 29.4342C9.15673 29.7477 10.0697 29.1535 10.0697 28.3575C10.0697 28.0859 9.7608 27.3431 9.28922 26.4809C8.31937 24.7073 7.7247 23.1497 7.34549 21.3893C6.93123 19.4669 7.01268 16.6874 7.5339 14.9528C7.95504 13.5516 7.8768 12.9835 7.2109 12.6039C6.76468 12.3494 6.70426 12.344 6.30795 12.5228ZM55.2033 16.1476C55.7815 16.4247 64.355 25.9106 64.5499 26.4887C64.9115 27.5604 64.5937 29.0223 63.8341 29.7833C62.9746 30.6443 61.751 30.8588 60.8008 30.3149C60.5148 30.1514 58.3138 27.8389 55.9101 25.1765C51.1541 19.909 51.2524 20.0554 51.4147 18.4685C51.608 16.5768 53.5798 15.3687 55.2033 16.1476ZM47.9535 20.6407C48.5861 20.8495 49.0771 21.3468 53.7133 26.4748C56.5007 29.5581 58.8823 32.3033 59.0054 32.5753C59.5405 33.7575 59.0945 35.5518 58.0825 36.2903C57.4229 36.7715 56.2902 36.9222 55.4982 36.634C55.0827 36.4827 53.8499 35.223 50.0754 31.0915C47.3886 28.1506 45.0224 25.4321 44.8167 25.0504C44.527 24.5123 44.4454 24.1647 44.4539 23.505C44.4757 21.8155 45.372 20.8054 47.1826 20.4294C47.2265 20.4203 47.5734 20.5156 47.9535 20.6407ZM17.8614 23.8564C17.2553 24.3694 17.1665 25.1536 17.6451 25.7669C17.8981 26.0912 18.1031 26.1928 18.5044 26.1928C18.9058 26.1928 19.1105 26.0912 19.3638 25.7669C19.7933 25.2161 19.7844 24.725 19.3331 24.1338C18.941 23.6202 18.2865 23.4966 17.8614 23.8564ZM44.0889 28.4541C44.5649 28.686 45.7749 29.9371 49.0213 33.5542C53.1845 38.193 53.3281 38.373 53.4869 39.1556C53.9979 41.6731 51.6107 43.7529 49.5563 42.5801C49.3635 42.4701 47.24 40.2019 44.8373 37.5394C40.358 32.5762 40.1676 32.3166 40.1644 31.1716C40.1626 30.5084 40.5398 29.5797 41.031 29.0383C41.8603 28.1242 42.9745 27.9113 44.0889 28.4541ZM40.063 36.2367C40.3111 36.355 42.0069 38.111 43.8315 40.139C46.7198 43.3489 47.1702 43.9142 47.3127 44.5074C47.5922 45.6721 47.2782 46.7435 46.411 47.5828C45.4856 48.4785 44.3044 48.574 43.1778 47.844C42.485 47.3954 36.7702 41.0642 36.4817 40.4261C35.7858 38.887 36.3371 37.0167 37.7103 36.2563C38.2384 35.9641 39.4695 35.9538 40.063 36.2367Z" fill="black"/>
</svg>
