<svg width="512" height="512" viewBox="0 0 512 512" fill="none" xmlns="http://www.w3.org/2000/svg">
<path fill-rule="evenodd" clip-rule="evenodd" d="M183.25 1.01692C156.803 5.4247 133.407 25.1862 124.521 50.6228C119.804 64.1262 118.905 76.7444 121.452 93.7064C125.002 117.349 135.235 141.698 151.132 164.336C158.016 174.14 161.361 175.795 166.355 171.866C170.645 168.491 169.884 165.231 162.108 153.668C140.955 122.209 131.27 88.1304 136.486 63.508C141.459 40.0279 160.101 21.3845 183.58 16.4107C207.972 11.2427 233.402 21.8977 247.49 43.1864C253.53 52.3131 258.47 52.3131 264.51 43.1864C273.399 29.754 288.152 19.6232 303.505 16.4107C331.058 10.6456 359.124 24.6971 371.078 50.2416C381.193 71.8605 377.911 101.156 361.761 133.412C351.87 153.164 339.282 169.752 318.053 191.007C302.08 207 283.302 222.683 265.891 234.576L256 241.331L245.965 234.478C230.733 224.074 210.926 207.86 196.774 194.21C183.132 181.051 181.465 180.208 176.626 184.014C174.737 185.499 173.991 187.015 173.991 189.365C173.991 192.259 175.601 194.212 187.742 206.059C211.332 229.073 248.641 256.946 255.864 256.952C262.465 256.956 297.838 231.387 319.444 210.994C359.088 173.574 381.909 137.474 389.656 99.9264C391.871 89.1896 392.12 66.7946 390.113 58.9192C382.934 30.7582 362.419 9.84948 334.509 2.25014C326.897 0.176766 312.357 -0.532358 304.725 0.796877C288.411 3.63838 274.025 10.8676 262.751 21.8897L256 28.4898L249.249 21.8897C231.837 4.8676 207.094 -2.95779 183.25 1.01692ZM27.9745 61.3507C25.4993 62.0397 21.6738 63.538 19.4736 64.6812C14.6671 67.1777 6.8622 75.0821 4.42393 79.9229C-0.0105639 88.7255 -0.00556342 88.5865 0.000437245 187.942C0.00643791 289.521 -0.0285664 288.754 5.19701 301.648C6.49316 304.847 30.6008 343.304 58.769 387.11L109.984 466.755V486.922C109.984 507.001 109.995 507.101 112.439 509.544L114.893 512H178.811C241.96 512 242.76 511.975 245.364 509.926L247.999 507.854V436.073C247.999 367.907 247.9 363.905 246.027 356.581C243.302 345.927 237.986 336.325 229.461 326.664C225.483 322.155 199.324 295.648 171.329 267.758C123.901 220.508 119.955 216.826 113.457 213.754C107.168 210.78 105.598 210.457 97.4823 210.467C88.4643 210.477 87.1371 210.86 75.7579 216.723C75.3608 216.927 74.9108 188.127 74.7577 152.722L74.4797 88.3485L71.2884 81.9092C69.5332 78.3687 68.282 75.2851 68.5091 75.0591C68.7361 74.8321 71.0713 75.2481 73.6976 75.9832C79.7613 77.6806 87.0251 84.7018 88.7593 90.5408C89.6474 93.5333 89.9814 107.683 89.9814 142.345V190.034L92.4367 192.488C95.5651 195.617 99.3995 195.617 102.528 192.488L104.983 190.034L104.971 141.728C104.959 90.7708 104.763 88.2024 100.216 79.4229C97.7283 74.62 89.8254 66.8126 84.9809 64.3722C80.3794 62.0537 72.3405 59.9464 68.043 59.9314C66.1528 59.9244 61.8493 60.6105 58.4799 61.4557C52.9703 62.8379 51.7602 62.8379 46.4546 61.4557C39.5268 59.6514 34.1902 59.6214 27.9745 61.3507ZM435.02 61.3507C432.545 62.0397 428.719 63.538 426.519 64.6812C421.712 67.1777 413.907 75.0821 411.469 79.9229C407.268 88.2635 407.041 91.415 407.029 141.728L407.017 190.034L409.472 192.488C412.6 195.617 416.435 195.617 419.563 192.488L422.018 190.034V142.345C422.018 107.683 422.352 93.5333 423.24 90.5408C424.975 84.7018 432.239 77.6806 438.302 75.9832C440.928 75.2481 443.264 74.8321 443.491 75.0591C443.718 75.2851 442.467 78.3687 440.711 81.9092L437.52 88.3485L437.242 152.722C437.089 188.127 436.639 216.927 436.242 216.723C424.863 210.86 423.536 210.477 414.518 210.467C406.402 210.457 404.831 210.78 398.543 213.754C392.045 216.826 388.099 220.508 340.67 267.758C312.676 295.648 286.517 322.155 282.539 326.664C274.014 336.325 268.697 345.927 265.973 356.581C264.1 363.905 264.001 367.907 264.001 436.073V507.854L266.636 509.926C269.239 511.975 270.039 512 333.188 512H397.107L399.561 509.544C402.005 507.101 402.016 507.001 402.016 486.922V466.755L453.231 387.11C481.399 343.304 505.507 304.847 506.803 301.648C512.028 288.754 511.993 289.521 511.999 187.942C512.005 87.5873 512.052 88.6745 507.261 79.4229C504.774 74.62 496.871 66.8126 492.026 64.3722C487.425 62.0537 479.386 59.9464 475.088 59.9314C473.198 59.9244 468.895 60.6105 465.525 61.4557C460.016 62.8379 458.805 62.8379 453.5 61.4557C446.572 59.6514 441.236 59.6214 435.02 61.3507ZM44.3604 76.1443C49.773 77.7526 57.1478 85.1278 58.756 90.5408C59.6731 93.6303 59.9781 114.026 59.9781 172.256C59.9781 254.306 60.0701 256.12 64.7146 265.456C68.032 272.124 174.968 379.515 179.328 380.558C183.553 381.568 187.401 378.358 187.811 373.483C188.129 369.695 188.044 369.603 132.722 314.072C85.1799 266.349 77.149 257.87 76.1469 254.338C73.6426 245.504 75.4808 238.403 81.9565 231.899C89.0043 224.819 98.2674 223.143 107.121 227.344C109.047 228.258 135.471 253.992 167.576 286.219C209.787 328.591 225.3 344.789 227.271 348.545C232.988 359.454 232.997 359.578 232.997 431.196V496.997H178.991H124.985V479.656V462.315L74.8528 384.389C47.2797 341.53 23.234 303.763 21.4178 300.462C14.7581 288.358 14.9731 292.102 14.9731 188.415C14.9731 117.454 15.2701 93.6563 16.1952 90.5408C17.6984 85.4799 25.1212 77.7746 29.9748 76.2363C34.7573 74.72 39.4628 74.69 44.3604 76.1443ZM481.409 76.1443C486.822 77.7526 494.196 85.1278 495.805 90.5408C496.73 93.6563 497.027 117.454 497.027 188.415C497.027 292.102 497.242 288.358 490.582 300.462C488.766 303.763 464.72 341.53 437.147 384.389L387.014 462.315V479.656V496.997H333.008H279.002V431.196C279.002 359.578 279.011 359.454 284.729 348.545C286.699 344.789 302.213 328.591 344.424 286.219C376.528 253.992 402.953 228.258 404.878 227.344C413.732 223.143 422.995 224.819 430.043 231.899C436.519 238.403 438.357 245.504 435.853 254.338C434.851 257.87 426.82 266.349 379.278 314.072C323.955 369.603 323.87 369.695 324.188 373.483C324.599 378.358 328.447 381.568 332.671 380.558C334.646 380.086 352.142 363.241 390.201 325.169C441.47 273.882 445.101 270.019 448.207 263.455L451.522 256.454L452.022 173.94C452.583 81.3092 452.062 87.3612 460.055 80.6511C466.535 75.2101 473.39 73.7628 481.409 76.1443Z" fill="black"/>
</svg>
