<svg width="64" height="64" viewBox="0 0 64 64" fill="none" xmlns="http://www.w3.org/2000/svg">
<path fill-rule="evenodd" clip-rule="evenodd" d="M22.9062 0.127115C19.6004 0.678087 16.6759 3.14827 15.5651 6.32785C14.9755 8.01577 14.8631 9.59305 15.1815 11.7133C15.6253 14.6686 16.9044 17.7122 18.8915 20.542C19.752 21.7675 20.1701 21.9744 20.7944 21.4832C21.3306 21.0614 21.2355 20.6539 20.2635 19.2085C17.6194 15.2761 16.4087 11.0163 17.0607 7.9385C17.6824 5.00349 20.0126 2.67306 22.9475 2.05134C25.9965 1.40534 29.1753 2.73721 30.9363 5.3983C31.6913 6.53914 32.3088 6.53914 33.0638 5.3983C34.1749 3.71925 36.019 2.4529 37.9381 2.05134C41.3823 1.3307 44.8905 3.08714 46.3848 6.2802C47.6491 8.98256 47.2389 12.6445 45.2201 16.6765C43.9837 19.1455 42.4103 21.219 39.7566 23.8759C37.76 25.875 35.4127 27.8354 33.2364 29.322L32 30.1664L30.7456 29.3097C28.8416 28.0092 26.3658 25.9825 24.5968 24.2763C22.8915 22.6314 22.6831 22.526 22.0783 23.0018C21.8421 23.1874 21.7489 23.3769 21.7489 23.6706C21.7489 24.0324 21.9501 24.2765 23.4678 25.7574C26.4165 28.6341 31.0801 32.1182 31.983 32.119C32.8081 32.1195 37.2297 28.9234 39.9305 26.3743C44.886 21.6968 47.7386 17.1842 48.707 12.4908C48.9839 11.1487 49.015 8.34933 48.7641 7.3649C47.8668 3.84478 45.3024 1.23118 41.8136 0.281267C40.8621 0.0220956 39.0446 -0.0665449 38.0906 0.0996095C36.0514 0.454797 34.2531 1.35845 32.8439 2.73621L32 3.56122L31.1561 2.73621C28.9796 0.60845 25.8867 -0.369724 22.9062 0.127115ZM3.49681 7.66884C3.18741 7.75496 2.70923 7.94225 2.4342 8.08515C1.83339 8.39721 0.857775 9.38526 0.552991 9.99036C-0.00132048 11.0907 -0.000695428 11.0733 5.46556e-05 23.4928C0.000804739 36.1901 -0.0035708 36.0943 0.649626 37.706C0.811645 38.1059 3.8251 42.913 7.34613 48.3887L13.748 58.3444V60.8652C13.748 63.3751 13.7494 63.3876 14.0549 63.693L14.3616 64H22.3514C30.245 64 30.345 63.9969 30.6705 63.7407L30.9999 63.4818V54.5091C30.9999 45.9884 30.9875 45.4881 30.7534 44.5726C30.4127 43.2409 29.7482 42.0406 28.6826 40.833C28.1854 40.2694 24.9155 36.956 21.4161 33.4697C15.4876 27.5635 14.9944 27.1032 14.1821 26.7192C13.396 26.3475 13.1997 26.3071 12.1853 26.3084C11.058 26.3096 10.8921 26.3575 9.46974 27.0904C9.4201 27.1159 9.36385 23.5159 9.34471 19.0903L9.30996 11.0436L8.91105 10.2387C8.69165 9.79609 8.53525 9.41064 8.56364 9.38239C8.59201 9.35401 8.88391 9.40601 9.2122 9.4979C9.97016 9.71008 10.8781 10.5877 11.0949 11.3176C11.2059 11.6917 11.2477 13.4604 11.2477 17.7931V23.7542L11.5546 24.061C11.9456 24.4521 12.4249 24.4521 12.816 24.061L13.1229 23.7542L13.1214 17.716C13.1199 11.3463 13.0954 11.0253 12.527 9.92786C12.216 9.3275 11.2282 8.35157 10.6226 8.04653C10.0474 7.75671 9.04256 7.4933 8.50537 7.49143C8.2691 7.49055 7.73116 7.57631 7.30999 7.68196C6.62129 7.85474 6.47003 7.85474 5.80683 7.68196C4.94085 7.45642 4.27378 7.45268 3.49681 7.66884ZM54.3775 7.66884C54.0681 7.75496 53.5899 7.94225 53.3149 8.08515C52.714 8.39721 51.7384 9.38526 51.4336 9.99036C50.9085 11.0329 50.8801 11.4269 50.8786 17.716L50.8771 23.7542L51.184 24.061C51.575 24.4521 52.0544 24.4521 52.4454 24.061L52.7523 23.7542V17.7931C52.7523 13.4604 52.794 11.6917 52.905 11.3176C53.1219 10.5877 54.0299 9.71008 54.7878 9.4979C55.116 9.40601 55.408 9.35401 55.4364 9.38239C55.4647 9.41064 55.3084 9.79609 55.0889 10.2387L54.69 11.0436L54.6553 19.0903C54.6361 23.5159 54.5799 27.1159 54.5303 27.0904C53.1079 26.3575 52.942 26.3096 51.8148 26.3084C50.8003 26.3071 50.6039 26.3475 49.8179 26.7192C49.0056 27.1032 48.5124 27.5635 42.5838 33.4697C39.0845 36.956 35.8146 40.2694 35.3174 40.833C34.2518 42.0406 33.5871 43.2409 33.2466 44.5726C33.0125 45.4881 33.0001 45.9884 33.0001 54.5091V63.4818L33.3295 63.7407C33.6549 63.9969 33.7549 64 41.6485 64H49.6384L49.9451 63.693C50.2506 63.3876 50.252 63.3751 50.252 60.8652V58.3444L56.6539 48.3887C60.1749 42.913 63.1884 38.1059 63.3504 37.706C64.0035 36.0943 63.9991 36.1901 63.9999 23.4928C64.0006 10.9484 64.0065 11.0843 63.4076 9.92786C63.0967 9.3275 62.1089 8.35157 61.5033 8.04653C60.9281 7.75671 59.9233 7.4933 59.386 7.49143C59.1498 7.49055 58.6119 7.57631 58.1906 7.68196C57.502 7.85474 57.3506 7.85474 56.6875 7.68196C55.8215 7.45642 55.1545 7.45268 54.3775 7.66884ZM5.54505 9.51804C6.22163 9.71908 7.14348 10.641 7.3445 11.3176C7.45914 11.7038 7.49726 14.2532 7.49726 21.532C7.49726 31.7882 7.50876 32.015 8.08932 33.182C8.504 34.0155 21.871 47.4394 22.416 47.5698C22.9441 47.696 23.4251 47.2948 23.4764 46.6854C23.5161 46.2119 23.5055 46.2004 16.5903 39.259C10.6475 33.2936 9.64362 32.2337 9.51836 31.7922C9.20532 30.688 9.4351 29.8004 10.2446 28.9874C11.1255 28.1024 12.2834 27.8929 13.3901 28.418C13.6309 28.5322 16.9339 31.749 20.947 35.7774C26.2234 41.0739 28.1625 43.0986 28.4089 43.5681C29.1235 44.9318 29.1246 44.9473 29.1246 53.8995V62.1246H22.3739H15.6231V59.957V57.7894L9.3566 48.0486C5.90996 42.6913 2.90425 37.9704 2.67723 37.5578C1.84476 36.0448 1.87164 36.5127 1.87164 23.5519C1.87164 14.6817 1.90876 11.707 2.0244 11.3176C2.2123 10.685 3.14015 9.72182 3.74685 9.52954C4.34466 9.34 4.93285 9.33625 5.54505 9.51804ZM60.1761 9.51804C60.8527 9.71908 61.7745 10.641 61.9756 11.3176C62.0912 11.707 62.1284 14.6817 62.1284 23.5519C62.1284 36.5127 62.1553 36.0448 61.3228 37.5578C61.0958 37.9704 58.09 42.6913 54.6434 48.0486L48.3768 57.7894V59.957V62.1246H41.626H34.8753V53.8995C34.8753 44.9473 34.8764 44.9318 35.5911 43.5681C35.8374 43.0986 37.7766 41.0739 43.053 35.7774C47.066 31.749 50.3691 28.5322 50.6097 28.418C51.7165 27.8929 52.8744 28.1024 53.7554 28.9874C54.5649 29.8004 54.7946 30.688 54.4816 31.7922C54.3564 32.2337 53.3525 33.2936 47.4098 39.259C40.4944 46.2004 40.4837 46.2119 40.5235 46.6854C40.5749 47.2948 41.0559 47.696 41.5839 47.5698C41.8307 47.5108 44.0177 45.4051 48.7751 40.6461C55.1837 34.2353 55.6376 33.7524 56.0259 32.9319L56.4403 32.0568L56.5028 21.7425C56.5729 10.1637 56.5077 10.9202 57.5069 10.0814C58.3169 9.40126 59.1737 9.22035 60.1761 9.51804Z" fill="black"/>
</svg>
