<svg width="64" height="64" viewBox="0 0 64 64" fill="none" xmlns="http://www.w3.org/2000/svg">
<path fill-rule="evenodd" clip-rule="evenodd" d="M44.4638 0.301594L44.1343 0.603038V3.40405C44.1343 6.14381 44.1407 6.21204 44.4236 6.52148C44.7808 6.91182 45.2622 6.92681 45.6521 6.5599C45.9385 6.29031 45.9484 6.20797 45.9869 3.77227C46.0303 1.02902 45.9982 0.71404 45.6316 0.287335C45.3131 -0.0832137 44.8784 -0.0779757 44.4638 0.301594ZM35.1415 7.22112C34.6832 7.89907 34.7913 8.23951 35.8598 9.48297C36.9285 10.7264 37.2211 10.8521 37.8036 10.3188C38.0487 10.0946 38.1331 9.88537 38.1331 9.50232C38.1331 9.05597 38.0098 8.84371 37.2095 7.91246C36.4092 6.98122 36.2268 6.83777 35.8432 6.83777C35.514 6.83777 35.3342 6.93597 35.1415 7.22112ZM52.8453 7.98491C51.7774 9.26183 51.6662 9.65042 52.193 10.2632C52.7195 10.8761 53.0534 10.7466 54.1508 9.50406C54.9922 8.55128 55.1367 8.31662 55.1367 7.90373C55.1367 7.61363 55.0364 7.30303 54.8866 7.12873C54.7369 6.95445 54.4699 6.83777 54.2206 6.83777C53.8658 6.83777 53.6641 7.00595 52.8453 7.98491ZM43.6504 9.46522C40.672 10.0837 38.058 12.9566 37.307 16.437C37.0076 17.8248 37.1136 20.2429 37.5347 21.63C37.9418 22.9715 38.8341 24.5284 39.7255 25.4529C40.5636 26.322 42.0276 27.2378 43.0896 27.5568C44.0657 27.8499 45.9787 27.8551 46.9525 27.5671C49.6359 26.7734 51.8948 24.207 52.7129 21.0225C53.303 18.7258 52.7383 14.6758 51.7733 14.2843C51.2932 14.0896 50.6699 14.4123 50.5623 14.9111C50.5117 15.1456 50.5816 15.6519 50.7443 16.2284C51.1114 17.53 51.1919 18.5633 51.0174 19.732C50.6765 22.0143 49.4751 23.8696 47.6613 24.9155L46.5912 25.5325L45.0815 25.5291C43.7971 25.5264 43.4629 25.4754 42.8436 25.1874C41.1703 24.4095 39.7652 22.6333 39.2443 20.638C39.0228 19.7893 38.9863 19.3624 39.035 18.1845C39.0873 16.9228 39.1466 16.6303 39.55 15.6416C41.0105 12.0627 44.5502 10.5643 47.6179 12.2262C48.5414 12.7265 48.8742 12.7594 49.2675 12.3889C49.6238 12.0531 49.6456 11.3264 49.3126 10.8977C48.4865 9.83503 45.5038 9.08026 43.6504 9.46522ZM29.4606 17.7598C29.0212 18.1619 28.9927 19.0746 29.4091 19.4139C29.8182 19.7474 34.1954 19.7474 34.6044 19.4139C35.0208 19.0746 34.9924 18.1619 34.553 17.7598C34.2479 17.4804 34.0601 17.4581 32.0068 17.4581C29.9534 17.4581 29.7656 17.4804 29.4606 17.7598ZM55.6762 17.6046C55.0977 17.8758 54.961 18.8156 55.426 19.3241C55.7023 19.6261 55.8236 19.6404 58.1051 19.6404H60.4947L60.7537 19.257C61.1752 18.6336 61.0781 18.0165 60.5038 17.671C60.2325 17.5078 59.6609 17.4603 58.0498 17.4673C56.8945 17.4724 55.8264 17.5343 55.6762 17.6046ZM6.89383 23.4178C6.16793 23.6259 6.06303 23.8638 6.07016 25.2839C6.08116 27.4543 6.81557 29.3505 8.31389 31.077C9.41637 32.3476 10.5257 33.0881 11.9313 33.4918L13.0028 33.7996V41.1561V48.5126L11.94 47.2824C10.9206 46.1023 10.8772 46.0254 10.8754 45.3944C10.8649 41.6593 7.86091 37.4873 4.43431 36.4486C3.69941 36.2259 1.95141 36.145 1.56846 36.316C0.822799 36.649 0.812673 39.067 1.54807 41.1856C2.03718 42.5948 2.63156 43.6313 3.57813 44.7256C5.03782 46.4133 6.59064 47.3258 8.4728 47.6016L9.56452 47.7616L11.2836 49.7388L13.0028 51.7158V56.7734V61.8309H6.80831H0.613756L0.30694 62.188C0.138155 62.3844 0 62.7146 0 62.922C0 63.1293 0.138155 63.4595 0.30694 63.656L0.613756 64.0131H32.0068H63.3998L63.7066 63.656C64.0978 63.2009 64.0978 62.6431 63.7066 62.188L63.3998 61.8309H57.4553C54.1859 61.8309 51.5109 61.778 51.5109 61.7135C51.5109 61.649 51.7814 60.8143 52.1123 59.8585C52.7128 58.1235 52.7143 58.1209 53.2063 57.9959C55.473 57.4203 56.6653 56.7174 58.0436 55.1444C59.1053 53.9328 59.215 53.5861 58.7533 52.9033C58.3007 52.2335 57.8649 52.3698 56.8382 53.5019C56.3484 54.0419 55.6052 54.695 55.1867 54.9531C52.3362 56.7105 49.0323 55.7983 47.377 52.7963C46.5562 51.3076 46.2496 49.0953 46.7599 48.3405C46.8975 48.137 47.01 47.76 47.01 47.5025C47.01 46.9264 47.4353 46.166 48.0131 45.709C48.3725 45.4249 48.5683 45.3751 49.1436 45.422C50.5017 45.5324 51.2139 46.6208 51.0614 48.3528L50.9791 49.2878L52.589 50.8369C53.4745 51.689 54.3298 52.4245 54.4896 52.4714C55.134 52.6609 55.7308 51.9155 55.5619 51.1321C55.5174 50.9259 54.9874 50.3079 54.2676 49.6231L53.0488 48.4635L52.9699 47.48C52.7795 45.1089 51.3271 43.4051 49.3559 43.2404C48.3213 43.154 47.5723 43.3813 46.8082 44.0135C46.1589 44.5506 45.4387 45.6459 45.3196 46.2775L45.2397 46.7005H44.187C42.9587 46.7005 42.634 46.9264 42.634 47.781C42.634 48.5035 43.0917 48.8828 43.9637 48.8828H44.6345V49.603C44.6345 50.7508 44.8659 51.769 45.4478 53.1805C46.3562 55.3844 47.9994 56.9954 50.0377 57.6805L50.7526 57.9206L50.5453 58.53C50.4312 58.8651 50.1336 59.7286 49.884 60.4488L49.4302 61.7581H41.6273H33.8246L33.484 58.6303C33.2968 56.9099 33.141 55.3221 33.1377 55.1023L33.132 54.7021H35.6881C38.2102 54.7021 38.2488 54.6975 38.5949 54.3509C38.9192 54.0263 38.9432 53.9298 38.9131 53.0779C38.8041 49.9919 36.9907 47.1448 34.4005 45.9929C33.6223 45.6468 33.3981 45.6199 30.8627 45.5679C28.679 45.5231 28.0025 45.5573 27.3619 45.7446C26.1185 46.1085 25.0465 46.8126 24.1356 47.8644C22.9243 49.2628 22.2726 50.8794 22.0677 52.9933C21.9908 53.7868 22.0062 53.8534 22.3611 54.2663L22.7356 54.7021H25.3083C27.6063 54.7021 27.8809 54.7276 27.8809 54.94C27.8809 55.256 27.2644 61.0846 27.1868 61.5035L27.126 61.8309H21.0021H14.8781V52.6999V43.5686L16.5972 41.5888L18.3164 39.609L19.4416 39.4351C21.7783 39.074 23.9257 37.5576 25.3197 35.2845C26.399 33.5245 26.8768 31.9096 26.8792 30.0143C26.8805 28.9739 26.8436 28.7719 26.5891 28.4276C26.3109 28.0514 26.2458 28.0338 25.1737 28.0435C23.2583 28.061 21.4527 28.9528 19.8618 30.6665C18.9735 31.6235 18.1227 32.967 17.6992 34.0813C17.3712 34.9441 17.0036 36.7871 17.0036 37.5684C17.0036 37.9803 16.8481 38.2304 15.9366 39.284L14.8697 40.5174L14.8834 35.5709C14.8963 30.9634 14.8797 30.5598 14.641 29.6788C13.9249 27.0368 11.7765 24.5173 9.56452 23.7259C8.63833 23.3946 7.45208 23.2578 6.89383 23.4178ZM9.87996 26.2718C11.4027 27.2028 12.7736 29.2966 12.9687 30.9888L13.0357 31.5705L12.6129 31.4856C11.7738 31.3171 10.3727 30.401 9.62703 29.5334C8.88113 28.6654 8.09421 27.0354 7.94919 26.0583L7.87616 25.5656L8.45042 25.6571C8.76623 25.7075 9.40962 25.9841 9.87996 26.2718ZM35.8418 27.7708C34.7738 29.0478 34.6626 29.4363 35.1894 30.049C35.7159 30.662 36.0498 30.5325 37.1472 29.2899C37.9886 28.3371 38.1331 28.1025 38.1331 27.6896C38.1331 27.3995 38.0328 27.0889 37.883 26.9146C37.7333 26.7403 37.4663 26.6236 37.217 26.6236C36.8621 26.6236 36.6605 26.7918 35.8418 27.7708ZM52.1451 27.007C51.6868 27.685 51.7949 28.0254 52.8634 29.2689C53.6501 30.1841 53.9144 30.4063 54.2169 30.4063C54.7165 30.4063 55.1367 29.8794 55.1367 29.253C55.1367 28.8504 54.9879 28.5999 54.2131 27.6984C53.4128 26.7671 53.2304 26.6236 52.8468 26.6236C52.5176 26.6236 52.3378 26.7219 52.1451 27.007ZM24.9583 30.9518C24.854 31.8416 24.1839 33.4729 23.5285 34.4321C22.5675 35.8386 20.4682 37.244 19.328 37.244H18.9132L19.0257 36.4803C19.2814 34.7449 20.5044 32.6433 21.9175 31.5108C22.7083 30.8769 24.0065 30.2793 24.616 30.2683L25.0392 30.2608L24.9583 30.9518ZM44.3844 30.6973C44.1519 30.9676 44.1343 31.1821 44.1343 33.7363C44.1343 36.1414 44.1618 36.5238 44.3541 36.8001C44.684 37.2741 45.3485 37.2494 45.7181 36.7495C46 36.368 46.0098 36.2685 46.0098 33.7639C46.0098 31.3629 45.9907 31.1448 45.7505 30.7896C45.4258 30.3091 44.7568 30.264 44.3844 30.6973ZM4.28841 38.6771C6.50851 39.5294 8.45554 42.0253 8.89739 44.5851C8.97453 45.0323 9.01554 45.4239 8.98841 45.4553C8.8625 45.6018 7.59923 45.1924 6.77706 44.7386C4.87104 43.6869 3.2622 41.2909 2.94125 39.0261C2.85486 38.4161 2.85848 38.4079 3.2203 38.4079C3.42197 38.4079 3.90257 38.529 4.28841 38.6771ZM48.3901 47.019C47.7203 47.8554 48.4883 49.1696 49.3922 48.734C49.7142 48.5789 50.0106 48.0635 50.0106 47.6589C50.0106 47.5535 49.894 47.2946 49.7515 47.0839C49.4167 46.5886 48.7597 46.5574 48.3901 47.019ZM34.1414 48.259C35.4912 49.0329 36.51 50.4636 36.9427 52.1925L37.0247 52.5199H30.5124H24.0004L24.081 52.1198C24.3267 50.901 25.1403 49.5536 26.0948 48.7846C27.3075 47.8079 27.7308 47.7133 30.6973 47.7548L33.3262 47.7916L34.1414 48.259ZM31.5302 57.9028C31.7172 59.6231 31.8727 61.2108 31.876 61.4308L31.8817 61.8309H30.5064C29.2818 61.8309 29.1307 61.8029 29.1266 61.5763C29.124 61.4363 29.277 59.8294 29.4664 58.0056L29.8109 54.6895L30.5006 54.7323L31.1903 54.7749L31.5302 57.9028Z" fill="black"/>
</svg>
