<svg width="625" height="510" viewBox="0 0 625 510" fill="none" xmlns="http://www.w3.org/2000/svg">
<path fill-rule="evenodd" clip-rule="evenodd" d="M223.653 2.51845C217.566 5.28356 210.567 13.2437 208.678 19.553C207.899 22.151 207.262 31.4815 207.262 40.2889V56.3018H150.017C110.07 56.3018 91.8599 56.7175 89.7507 57.6795C83.5645 60.497 83.0146 70.1664 88.8619 73.2961C90.4687 74.1556 110.726 74.5896 149.27 74.5896H207.262V84.3431V94.0967H122.529H37.7949V84.3431V74.5896H46.0988C56.0779 74.5896 59.7403 72.1452 59.7403 65.4871C59.7403 58.5305 55.5451 56.3018 42.446 56.3018C30.5565 56.3018 26.3186 57.7246 22.0527 63.1475C19.7302 66.1004 19.5071 67.9743 19.5071 84.5504C19.5071 111.891 20.0703 112.384 51.2755 112.384C67.4967 112.384 72.0663 112.727 71.631 113.909C71.3214 114.747 59.8817 149.037 46.2097 190.108L21.3504 264.783L16.4664 264.788C10.3924 264.793 4.41104 268.325 1.7459 273.478C0.0890189 276.682 -0.188957 280.004 0.236541 291.517C0.709586 304.313 1.12167 306.383 4.66097 313.756C9.02324 322.844 17.2979 331.178 26.0346 335.284C35.8941 339.919 44.8321 340.591 90.3602 340.119C131.963 339.688 133.753 339.573 140.554 336.871C150.421 332.952 160.806 323.062 165.321 313.285C168.53 306.337 168.894 304.192 169.257 290.168L169.657 274.708L165.497 270.167C161.875 266.216 160.471 265.555 154.683 265.074L148.03 264.523L123.215 189.977C109.566 148.978 98.146 114.747 97.8363 113.909C97.395 112.71 105.236 112.384 134.516 112.384H171.758L172.136 135.244C172.667 167.275 170.732 163.87 212.045 205.514C243.638 237.36 247.679 242.302 245.903 246.93C245.553 247.842 243.59 248.923 241.542 249.333C236.578 250.325 233.281 253.835 231.66 259.853C230.766 263.175 230.444 281.889 230.682 316.716L231.036 368.627L234.457 371.568C238.646 375.17 241.32 375.272 245.488 371.993L248.688 369.477L249.006 318.044L249.325 266.611H311.503H373.682L373.993 379.082L374.304 491.553H311.509H248.715V447.662C248.715 405.396 248.625 403.681 246.276 401.332C243.195 398.252 237.647 398.203 233.915 401.224L231.036 403.553L230.65 446.03C230.184 497.224 230.461 500.365 235.91 505.813L239.937 509.841H311.287H382.638L386.354 506.714C388.397 504.994 390.63 501.566 391.317 499.095C392.692 494.143 393.154 266.742 391.802 259.986C390.819 255.074 385.036 249.211 380.677 248.709C377.435 248.335 377.328 248.078 376.972 239.816C376.48 228.399 377.105 226.536 383.873 219.236C393.021 209.37 398.078 202.625 402.804 193.99C412.66 175.985 415.744 161.452 415.744 133.004V112.384H471.347C515.317 112.384 526.832 112.704 526.388 113.909C526.079 114.747 514.659 148.978 501.01 189.977L476.194 264.523L469.543 265.074C463.754 265.555 462.349 266.216 458.729 270.167L454.567 274.708L454.967 290.168C455.33 304.192 455.695 306.337 458.904 313.285C463.439 323.107 473.819 332.975 483.671 336.83C490.022 339.315 492.889 339.599 512.467 339.676C533.893 339.762 534.244 339.721 536.546 336.885C539.305 333.485 539.569 328.37 537.154 325.061C535.595 322.925 533.365 322.629 514.294 322.023C495.962 321.442 492.516 321.013 488.286 318.782C477.629 313.167 473.045 305.005 473.045 291.645V283.071H539.491H605.937L605.925 291.301C605.898 310.144 593.565 322.085 574.134 322.085C569.304 322.085 567.891 322.63 565.793 325.298C562.614 329.339 562.605 331.889 565.756 335.896C568.997 340.015 574.605 340.984 584.871 339.196C601.195 336.353 615.203 325.473 620.71 311.359C624.421 301.85 625.465 279.252 622.463 273.447C619.813 268.323 613.82 264.793 607.759 264.788L602.875 264.783L578.015 190.108C564.343 149.037 552.904 114.747 552.594 113.909C552.159 112.727 556.728 112.384 572.95 112.384C604.017 112.384 604.718 111.758 604.718 83.9591C604.718 67.9829 604.487 66.0894 602.172 63.1475C596.574 56.0298 600.465 56.3018 504.196 56.3018H415.744L415.732 51.1203C415.715 43.5197 410.843 34.0186 404.673 29.5491C397.553 24.3919 391.403 22.9972 378.869 23.6995L368.206 24.2956L366.916 19.5043C365.288 13.4558 358.085 5.38476 351.737 2.49406C344.803 -0.663639 325.677 -0.627066 318.663 2.55746C315.897 3.81322 313.237 5.48351 312.752 6.26744C312.105 7.31351 311.323 7.19648 309.814 5.83099C305.41 1.84668 298.897 0.219053 287.462 0.245872C276.165 0.272691 267.452 2.62939 265.203 6.26744C264.556 7.31351 263.774 7.19648 262.265 5.83099C257.863 1.84668 251.348 0.219053 239.915 0.245872C231.568 0.265377 227.301 0.861565 223.653 2.51845ZM251.817 21.5L254.81 24.4919V59.9593V95.4268L257.804 98.4187C261.617 102.233 266.291 102.233 270.106 98.4187L273.098 95.4268V59.9593V24.4919L276.091 21.5C278.735 18.8556 280.147 18.507 288.195 18.507C296.585 18.507 297.505 18.7605 299.832 21.7195C302.257 24.8004 302.359 26.3658 302.359 60.1788V95.4268L305.352 98.4187C309.166 102.233 313.84 102.233 317.653 98.4187L320.647 95.4268V59.9593V24.4919L323.64 21.5C326.283 18.8556 327.695 18.507 335.743 18.507C344.133 18.507 345.054 18.7605 347.38 21.7195C349.804 24.8004 349.907 26.3658 349.907 60.1788V95.4268L352.901 98.4187C356.714 102.233 361.388 102.233 365.202 98.4187C368.171 95.4512 368.195 95.2403 368.195 72.1135V48.7988L371.758 45.2352C374.853 42.1409 376.226 41.6715 382.182 41.6715C390.156 41.6715 395.908 44.2037 396.899 48.1503C397.282 49.6779 397.427 75.5918 397.221 105.735L396.846 160.542L393.413 170.296C389.136 182.447 381.748 194.304 370.755 206.656C360.585 218.084 358.441 223.466 358.441 237.569V247.715H311.673H264.904L264.192 241.701C262.907 230.858 259.552 226.55 226.148 192.851C208.533 175.082 193.236 158.787 192.156 156.641C190.588 153.524 190.193 148.683 190.193 132.563V112.384H198.728H207.262V121.364C207.262 128.602 207.753 130.966 209.79 133.556C213.283 137.998 219.529 137.998 223.022 133.556C225.492 130.418 225.551 129.113 225.551 77.6376C225.551 26.1622 225.609 24.8565 228.078 21.7195C230.404 18.7605 231.324 18.507 239.715 18.507C247.763 18.507 249.175 18.8556 251.817 21.5ZM586.43 84.3431V94.0967H501.087H415.744V84.3431V74.5896H501.087H586.43V84.3431ZM107.236 199.398L129.039 264.783H85.2457C61.1594 264.783 41.4525 264.377 41.4525 263.881C41.4525 262.298 84.6545 133.234 85.0506 133.632C85.2603 133.841 95.2443 163.436 107.236 199.398ZM582.773 263.86C582.773 264.367 563.066 264.783 538.98 264.783H495.188L517.238 198.646L539.287 132.51L561.031 197.723C572.989 233.591 582.773 263.353 582.773 263.86ZM151.179 291.645C151.179 304.985 146.653 313.063 135.94 318.844C131.26 321.37 129.368 321.492 89.0008 321.881C60.6474 322.152 44.8821 321.833 40.6283 320.898C26.5576 317.808 18.3219 306.89 18.3 291.301L18.2878 283.071H84.7337H151.179V291.645ZM271.459 288.959C268.564 292.158 268.86 299.236 272.007 302.084C274.412 304.26 276.899 304.407 311.597 304.407C348.088 304.407 348.659 304.368 351.297 301.732C354.581 298.446 354.795 292.547 351.751 289.183C349.614 286.823 348.062 286.728 311.503 286.728C276.212 286.728 273.331 286.889 271.459 288.959Z" fill="black"/>
</svg>
