<svg width="512" height="512" viewBox="0 0 512 512" fill="none" xmlns="http://www.w3.org/2000/svg">
<g clip-path="url(#clip0_4_90)">
<path d="M232.484 2.09997C202.235 8.99997 177.329 32.6 169.954 61.1C167.068 72.4 167.068 89.8 169.847 100.2C180.75 140 221.795 166.3 264.658 161.1C316.606 154.7 350.276 108.9 338.305 61C337.343 57.4 334.243 49.9 331.357 44.4C320.561 23.5 299.825 7.89997 275.347 1.99997C263.91 -0.700025 244.563 -0.700025 232.484 2.09997ZM269.575 22.6C280.157 25 290.525 30.6 298.863 38.4C312.224 51 317.675 63.1 317.889 80C317.996 92.4 315.644 100.9 309.124 110.9C287.105 145 239.218 150.8 209.396 123C196.142 110.6 190.263 97.6 190.263 80.5C190.263 63.9 196.356 50.1 208.862 38.5C225.43 23.1 247.021 17.4 269.575 22.6Z" fill="black"/>
<path d="M249.48 33C246.701 34 242.639 38.7 242.639 40.9C242.639 41.8 240.929 43.4 238.898 44.4C231.629 48.1 227.033 57.6 227.995 66.8C229.064 76.6 234.836 82.1 249.907 87.8C253.862 89.3 257.71 90.9 258.458 91.3C260.382 92.5 260.062 95.4 257.71 97.5C255.145 99.6 248.945 99.2 241.463 96.4C237.187 94.9 236.119 94.8 233.019 96C229.385 97.4 225.537 102.2 225.537 105.3C225.537 109.4 228.85 113.8 233.981 116.4C236.867 117.8 239.86 119 240.715 119C241.57 119 242.853 120.6 243.601 122.5C245.097 126.4 249.266 129 254.29 129C258.352 129 263.696 124.9 264.551 121C264.979 119.3 265.62 118 266.048 118C267.972 118 277.057 109.4 279.195 105.7C281.867 100.7 282.829 91.9 281.226 86.4C279.729 81.2 272.889 73.9 267.544 71.8C248.732 64.3 248.304 64 252.152 62.1C253.648 61.3 255.893 61.9 261.879 64.6C271.071 68.9 275.133 68.7 279.409 63.9C285.074 57.6 281.974 50 271.713 45.4C266.796 43.1 265.086 41.8 264.124 39.2C261.879 33.7 255.145 30.8 249.48 33Z" fill="black"/>
<path d="M58.2547 66.2C53.124 67.9 51.5207 69.4 25.7604 96.4C10.1545 112.7 0.961999 123.1 0.534442 124.9C-0.534452 129.4 2.45845 134.8 6.84092 136.5C8.9787 137.3 11.8647 138 13.3612 138H16.0334V157.7C16.0334 174.7 16.3541 178.1 18.0643 181.5C20.309 186.1 26.5086 191.6 30.7842 192.7C32.3875 193.2 48.6347 193.5 66.9128 193.5H100.155L105.286 190.5C108.706 188.5 111.272 186 112.982 183.1C115.334 178.9 115.441 177.7 115.441 158.5V138.3L120.464 137.7C129.229 136.8 134.146 129 130.084 122.3C129.336 121.2 117.792 108.7 104.431 94.6C86.3666 75.7 78.7775 68.6 75.4639 67.1C70.547 64.8 63.4923 64.5 58.2547 66.2ZM81.129 102.2L95.2384 117H66.2714C43.3971 117 37.4113 116.7 38.0526 115.7C39.8697 113.1 65.5232 87 66.2714 87.2C66.5921 87.4 73.3261 94.1 81.129 102.2ZM92.9938 155.5V173H65.737H38.4802V155.5V138H65.737H92.9938V155.5Z" fill="black"/>
<path d="M427.878 79.4C419.861 82.9 416.441 88.1 416.013 97.6L415.586 104.8L407.89 105.2C397.735 105.6 392.177 108.8 388.436 116.3C386.084 121 385.871 122.8 385.871 135.5C385.871 147 386.298 150.2 387.901 153.5C391.963 161.7 399.339 165.9 409.493 166H415.586L416.013 173.3C416.227 179 416.975 181.5 418.899 184.2C422.106 188.6 427.344 191.9 432.581 193.1C439.208 194.5 459.731 194.2 465.61 192.5C475.123 189.9 481.002 181.9 481.002 171.5V166H486.881C496.501 166 504.411 161.8 508.58 154.5C510.504 151.1 511.679 132.5 510.504 123.7C509.648 117.3 505.907 111.4 500.563 108C497.57 106.1 495.005 105.4 488.805 105.2L481.002 104.8V99.1C481.002 88.9 474.696 80.6 464.862 78C462.831 77.4 455.028 77 447.332 77C434.933 77 432.902 77.3 427.878 79.4ZM458.555 108.5C458.555 118.7 458.662 119.1 461.655 122.2L464.755 125.5L476.62 125.8L488.484 126.2V135.6V145H477.154H465.824L462.19 148.4L458.555 151.8V162.4V173H448.508H438.46L438.033 161.9L437.712 150.8L434.185 147.9C430.871 145.1 430.443 145 419.541 145H408.317V135.6V126.2L420.075 125.8C431.192 125.5 431.94 125.4 434.719 122.7C437.605 120.1 437.712 119.4 438.033 109L438.46 98H448.508H458.555V108.5Z" fill="black"/>
<path d="M244.242 190.4C231.522 193.3 219.337 202.9 214.634 213.8C212.71 218.4 212.282 221.4 212.175 229.5C212.175 238.3 212.496 240.2 215.168 245.4C216.772 248.6 217.947 251.4 217.84 251.5C217.627 251.6 215.703 252.6 213.565 253.9C208.22 256.9 203.304 262.3 199.99 269C197.532 274 197.211 275.8 196.89 290C196.569 304.6 196.676 305.8 199.028 309.9C200.418 312.4 203.304 315.8 205.548 317.4L209.717 320.5L252.473 320.8C294.373 321.1 295.335 321 300.038 318.9C302.924 317.6 305.917 315.2 307.628 312.7C310.514 308.7 310.514 308.5 310.514 291.1C310.514 275.2 310.3 273.1 308.162 268.8C305.597 263.5 298.542 256 293.411 253L289.991 251L292.77 245.8C295.228 241 295.549 239.4 295.549 229C295.549 218 295.442 217.2 292.129 211.4C282.722 194.6 263.375 186 244.242 190.4ZM258.993 211.1C263.589 212.3 269.789 217 272.14 221.1C274.706 225.9 274.064 233.9 270.751 238.8C267.437 243.5 259.314 248 254.183 248C247.021 248 239.432 243.2 236.119 236.5C231.309 226.7 236.546 215.1 247.663 211.5C252.686 209.8 253.862 209.7 258.993 211.1ZM280.905 271C287.105 274.6 288.601 278.2 288.601 289.7V300H253.755H218.909L219.337 289.2C219.658 279.8 219.978 278.1 222.223 275.1C226.499 269.5 228.85 269.1 254.397 269C275.454 269 277.699 269.2 280.905 271Z" fill="black"/>
<path d="M35.4873 215C29.1808 216.2 20.6296 220.8 16.9954 224.9C12.7198 229.8 10.582 234.3 9.29931 241.4C8.23041 247.4 8.55108 248.5 23.9432 306.5C32.4944 338.9 40.8317 369.1 42.3282 373.5C50.4518 396.7 68.7298 422.1 89.8939 439.6C94.2764 443.1 108.386 453.1 121.426 461.7L145.049 477.5L145.69 488.2C146.011 494.6 146.866 499.9 147.828 501.7C149.966 505.4 154.776 509.6 158.517 510.9C160.548 511.7 191.546 512 254.824 512H348.032L352.842 509.1C359.79 505 361.714 500.8 362.141 488.2L362.569 478L386.726 461.8C400.087 452.8 414.731 442.5 419.22 438.7C438.353 423 455.99 398.9 464.327 377.2C468.068 367.3 473.52 346.9 473.52 342.6C473.52 337.4 469.886 333.9 463.793 333.3C459.41 332.8 458.448 333.1 455.562 335.6C452.676 338.1 451.714 340.5 448.508 352.1C444.125 368.4 439.85 378.7 433.223 389.1C419.327 411.1 408.424 421 371.227 445.9C354.98 456.8 341.725 466.4 341.084 467.7C340.443 469 339.908 475 339.908 481V492H302.39H264.872L265.299 462.7C265.727 435.1 265.941 433 268.613 423.8C273.744 405.8 284.005 389.8 297.794 378.2C307.521 370 387.688 322 391.536 322C393.673 322 395.811 323.1 398.27 325.4C402.011 328.9 402.866 332.4 400.835 336C400.194 337.1 388.65 346.1 375.182 356.1C361.607 366 350.063 375 349.528 376C347.497 379.5 348.245 385.7 351.025 388.7C353.162 391.1 354.445 391.5 358.828 391.5C363.958 391.5 364.279 391.3 389.612 372.5C403.721 362.1 416.12 352.6 417.082 351.5C422.106 346 423.816 340.8 423.923 330L424.137 319.5L439.743 280.5C448.401 259.1 456.204 240.7 457.273 239.6C458.235 238.6 460.693 237.1 462.617 236.3C465.824 235.1 466.679 235.1 470.099 236.7C475.871 239.3 477.368 242.9 475.765 250.5C475.016 253.9 474.802 257.8 475.123 259.3C476.299 263.4 480.468 266 485.919 266C492.225 266 495.646 263.1 497.57 256C502.38 239.2 495.325 224 479.719 217.5C463.579 210.7 445.515 216.2 436.536 230.6C435.04 232.9 428.199 249.1 421.144 266.7C414.196 284.2 407.997 299.7 407.355 301.2L406.286 303.8L401.156 302.3C394.315 300.3 383.519 301 377.64 303.9C370.906 307.1 295.763 352.4 288.708 357.4C276.95 366 265.727 378.4 258.138 391.3L254.183 398.1L249.48 390.4C246.914 386.2 243.494 381.1 241.891 379.1C237.187 373.2 224.361 361.1 218.054 356.5C206.724 348.4 131.153 303.7 126.343 302.4C120.144 300.6 113.837 300.6 107.424 302.5C104.538 303.3 102.079 303.8 101.866 303.6C101.652 303.4 95.2384 287.6 87.6493 268.5C79.9532 249.3 72.2572 231.5 70.4401 228.9C63.1716 218.3 48.7415 212.5 35.4873 215ZM48.9553 238.4C52.5895 241.5 52.8033 241.9 69.4781 283.5C84.2288 320.6 84.5495 321.6 83.9081 327.3C83.053 334.8 84.7632 342.6 88.6113 348.2C90.749 351.3 99.1933 358.2 116.616 371.1C130.405 381.3 142.697 390.2 143.98 390.8C148.042 392.9 152.531 392.2 156.272 389.1C159.265 386.6 159.8 385.5 159.8 381.7C159.8 378.6 159.158 376.5 157.662 375C156.486 373.8 144.835 364.9 131.795 355.3C107.638 337.4 105.072 334.8 106.462 329.7C107.317 326.1 112.768 322 116.402 322C118.54 322 132.329 329.7 161.51 347.2C214.527 379 221.689 385.1 233.019 407.1C241.142 423.1 241.891 427.5 242.425 461.7L242.853 492H205.334H167.816V480.4C167.816 474.1 167.389 468.1 166.747 467.1C166.213 466.1 153.386 457 138.208 446.9C100.155 421.5 87.2217 409.5 73.1123 386.3C65.6301 374.1 62.744 364.8 46.39 303.2C32.0668 248.9 31.1048 244.7 32.4944 241.7C33.777 238.8 36.1286 237 40.6179 235.7C42.9695 234.9 46.1762 236 48.9553 238.4Z" fill="black"/>
<path d="M470.313 290.1C464.007 292.5 461.334 298.3 463.9 304.1C465.717 308.2 468.924 310 474.375 310C478.116 310 479.613 309.4 482.178 307.1C490.301 299.4 481.002 286 470.313 290.1Z" fill="black"/>
</g>
</svg>
