<svg width="64" height="64" viewBox="0 0 64 64" fill="none" xmlns="http://www.w3.org/2000/svg">
<path d="M29.0606 0.262496C25.2794 1.125 22.1662 4.075 21.2443 7.6375C20.8836 9.05 20.8836 11.225 21.2309 12.525C22.5938 17.5 27.7244 20.7875 33.0823 20.1375C39.5758 19.3375 43.7846 13.6125 42.2882 7.625C42.1679 7.175 41.7804 6.2375 41.4197 5.55C40.0702 2.9375 37.4782 0.987496 34.4184 0.249996C32.9888 -0.087503 30.5704 -0.0875029 29.0606 0.262496ZM33.6969 2.825C35.0197 3.125 36.3157 3.825 37.3579 4.8C39.0281 6.375 39.7094 7.8875 39.7362 10C39.7496 11.55 39.4556 12.6125 38.6406 13.8625C35.8882 18.125 29.9023 18.85 26.1746 15.375C24.5178 13.825 23.7829 12.2 23.7829 10.0625C23.7829 7.9875 24.5446 6.2625 26.1078 4.8125C28.1788 2.8875 30.8777 2.175 33.6969 2.825Z" fill="black"/>
<path d="M31.185 4.12501C30.8376 4.25001 30.3299 4.83751 30.3299 5.11251C30.3299 5.22501 30.1161 5.42501 29.8623 5.55001C28.9536 6.01251 28.3791 7.20001 28.4994 8.35001C28.633 9.57501 29.3545 10.2625 31.2384 10.975C31.7328 11.1625 32.2138 11.3625 32.3073 11.4125C32.5478 11.5625 32.5078 11.925 32.2138 12.1875C31.8931 12.45 31.1181 12.4 30.1829 12.05C29.6484 11.8625 29.5149 11.85 29.1274 12C28.6731 12.175 28.1921 12.775 28.1921 13.1625C28.1921 13.675 28.6063 14.225 29.2476 14.55C29.6084 14.725 29.9825 14.875 30.0894 14.875C30.1963 14.875 30.3566 15.075 30.4501 15.3125C30.6371 15.8 31.1583 16.125 31.7863 16.125C32.294 16.125 32.962 15.6125 33.0689 15.125C33.1224 14.9125 33.2025 14.75 33.256 14.75C33.4965 14.75 34.6321 13.675 34.8994 13.2125C35.2334 12.5875 35.3536 11.4875 35.1533 10.8C34.9661 10.15 34.1111 9.23751 33.443 8.97501C31.0915 8.03751 31.038 8.00001 31.519 7.76251C31.706 7.66251 31.9866 7.73751 32.7349 8.07501C33.8839 8.61251 34.3916 8.58751 34.9261 7.98751C35.6343 7.20001 35.2468 6.25001 33.9641 5.67501C33.3495 5.38751 33.1358 5.22501 33.0155 4.90001C32.7349 4.21251 31.8931 3.85001 31.185 4.12501Z" fill="black"/>
<path d="M7.28189 8.275C6.64055 8.4875 6.44014 8.675 3.2201 12.05C1.26937 14.0875 0.120303 15.3875 0.0668587 15.6125C-0.0667531 16.175 0.30736 16.85 0.855168 17.0625C1.12239 17.1625 1.48314 17.25 1.6702 17.25H2.00423V19.7125C2.00423 21.8375 2.04432 22.2625 2.25809 22.6875C2.53868 23.2625 3.31363 23.95 3.84808 24.0875C4.04849 24.15 6.07939 24.1875 8.36415 24.1875H12.5194L13.1608 23.8125C13.5883 23.5625 13.9091 23.25 14.1228 22.8875C14.4168 22.3625 14.4302 22.2125 14.4302 19.8125V17.2875L15.0581 17.2125C16.1537 17.1 16.7683 16.125 16.2606 15.2875C16.1671 15.15 14.7241 13.5875 13.0539 11.825C10.7959 9.4625 9.84724 8.575 9.43304 8.3875C8.81843 8.1 7.93659 8.0625 7.28189 8.275ZM10.1412 12.775L11.9049 14.625H8.28398C5.42469 14.625 4.67647 14.5875 4.75663 14.4625C4.98377 14.1375 8.19045 10.875 8.28398 10.9C8.32407 10.925 9.16582 11.7625 10.1412 12.775ZM11.6243 19.4375V21.625H8.21718H4.81008V19.4375V17.25H8.21718H11.6243V19.4375Z" fill="black"/>
<path d="M53.4848 9.925C52.4826 10.3625 52.0551 11.0125 52.0016 12.2L51.9483 13.1L50.9863 13.15C49.7169 13.2 49.0221 13.6 48.5545 14.5375C48.2605 15.125 48.2339 15.35 48.2339 16.9375C48.2339 18.375 48.2873 18.775 48.4876 19.1875C48.9954 20.2125 49.9174 20.7375 51.1866 20.75H51.9483L52.0016 21.6625C52.0284 22.375 52.1219 22.6875 52.3624 23.025C52.7633 23.575 53.418 23.9875 54.0726 24.1375C54.901 24.3125 57.4664 24.275 58.2013 24.0625C59.3904 23.7375 60.1253 22.7375 60.1253 21.4375V20.75H60.8601C62.0626 20.75 63.0514 20.225 63.5725 19.3125C63.813 18.8875 63.9599 16.5625 63.813 15.4625C63.706 14.6625 63.2384 13.925 62.5704 13.5C62.1963 13.2625 61.8756 13.175 61.1006 13.15L60.1253 13.1V12.3875C60.1253 11.1125 59.337 10.075 58.1078 9.75C57.8539 9.675 56.8785 9.625 55.9165 9.625C54.3666 9.625 54.1128 9.6625 53.4848 9.925ZM57.3194 13.5625C57.3194 14.8375 57.3328 14.8875 57.7069 15.275L58.0944 15.6875L59.5775 15.725L61.0605 15.775V16.95V18.125H59.6443H58.228L57.7738 18.55L57.3194 18.975V20.3V21.625H56.0635H54.8075L54.7541 20.2375L54.714 18.85L54.2731 18.4875C53.8589 18.1375 53.8054 18.125 52.4426 18.125H51.0396V16.95V15.775L52.5094 15.725C53.899 15.6875 53.9925 15.675 54.3399 15.3375C54.7006 15.0125 54.714 14.925 54.7541 13.625L54.8075 12.25H56.0635H57.3194V13.5625Z" fill="black"/>
<path d="M30.5302 23.8C28.9402 24.1625 27.4171 25.3625 26.8292 26.725C26.5887 27.3 26.5352 27.675 26.5219 28.6875C26.5219 29.7875 26.562 30.025 26.896 30.675C27.0965 31.075 27.2434 31.425 27.23 31.4375C27.2034 31.45 26.9629 31.575 26.6956 31.7375C26.0275 32.1125 25.413 32.7875 24.9987 33.625C24.6915 34.25 24.6514 34.475 24.6112 36.25C24.5711 38.075 24.5845 38.225 24.8785 38.7375C25.0522 39.05 25.413 39.475 25.6935 39.675L26.2146 40.0625L31.5591 40.1C36.7966 40.1375 36.9169 40.125 37.5047 39.8625C37.8655 39.7 38.2396 39.4 38.4535 39.0875C38.8142 38.5875 38.8142 38.5625 38.8142 36.3875C38.8142 34.4 38.7875 34.1375 38.5202 33.6C38.1996 32.9375 37.3177 32 36.6764 31.625L36.2489 31.375L36.5962 30.725C36.9035 30.125 36.9436 29.925 36.9436 28.625C36.9436 27.25 36.9302 27.15 36.5161 26.425C35.3402 24.325 32.9219 23.25 30.5302 23.8ZM32.3741 26.3875C32.9486 26.5375 33.7236 27.125 34.0175 27.6375C34.3382 28.2375 34.258 29.2375 33.8439 29.85C33.4296 30.4375 32.4142 31 31.7729 31C30.8776 31 29.929 30.4 29.5149 29.5625C28.9136 28.3375 29.5682 26.8875 30.9579 26.4375C31.5857 26.225 31.7327 26.2125 32.3741 26.3875ZM35.1131 33.875C35.8881 34.325 36.0751 34.775 36.0751 36.2125V37.5H31.7194H27.3636L27.4171 36.15C27.4572 34.975 27.4972 34.7625 27.7779 34.3875C28.3124 33.6875 28.6062 33.6375 31.7996 33.625C34.4317 33.625 34.7124 33.65 35.1131 33.875Z" fill="black"/>
<path d="M4.43599 26.875C3.64768 27.025 2.57878 27.6 2.1245 28.1125C1.59005 28.725 1.32283 29.2875 1.16249 30.175C1.02888 30.925 1.06896 31.0625 2.99298 38.3125C4.06188 42.3625 5.10404 46.1375 5.2911 46.6875C6.30655 49.5875 8.5913 52.7625 11.2368 54.95C11.7846 55.3875 13.5483 56.6375 15.1783 57.7125L18.1312 59.6875L18.2113 61.025C18.2515 61.825 18.3583 62.4875 18.4786 62.7125C18.7458 63.175 19.3471 63.7 19.8147 63.8625C20.0686 63.9625 23.9433 64 31.8531 64H43.5041L44.1053 63.6375C44.9738 63.125 45.2143 62.6 45.2677 61.025L45.3212 59.75L48.3408 57.725C50.011 56.6 51.8415 55.3125 52.4026 54.8375C54.7942 52.875 56.9988 49.8625 58.041 47.15C58.5086 45.9125 59.1901 43.3625 59.1901 42.825C59.1901 42.175 58.7358 41.7375 57.9742 41.6625C57.4263 41.6 57.3061 41.6375 56.9453 41.95C56.5846 42.2625 56.4643 42.5625 56.0636 44.0125C55.5157 46.05 54.9813 47.3375 54.153 48.6375C52.416 51.3875 51.0531 52.625 46.4035 55.7375C44.3726 57.1 42.7157 58.3 42.6356 58.4625C42.5555 58.625 42.4886 59.375 42.4886 60.125V61.5H37.7988H33.1091L33.1625 57.8375C33.216 54.3875 33.2427 54.125 33.5767 52.975C34.2181 50.725 35.5007 48.725 37.2243 47.275C38.4402 46.25 48.4611 40.25 48.9421 40.25C49.2092 40.25 49.4764 40.3875 49.7838 40.675C50.2514 41.1125 50.3583 41.55 50.1045 42C50.0243 42.1375 48.5813 43.2625 46.8978 44.5125C45.201 45.75 43.758 46.875 43.6911 47C43.4372 47.4375 43.5307 48.2125 43.8782 48.5875C44.1453 48.8875 44.3057 48.9375 44.8536 48.9375C45.4948 48.9375 45.535 48.9125 48.7016 46.5625C50.4652 45.2625 52.0151 44.075 52.1353 43.9375C52.7633 43.25 52.9771 42.6 52.9905 41.25L53.0172 39.9375L54.968 35.0625C56.0502 32.3875 57.0256 30.0875 57.1592 29.95C57.2795 29.825 57.5867 29.6375 57.8272 29.5375C58.2281 29.3875 58.335 29.3875 58.7625 29.5875C59.484 29.9125 59.6711 30.3625 59.4707 31.3125C59.3771 31.7375 59.3503 32.225 59.3904 32.4125C59.5374 32.925 60.0586 33.25 60.74 33.25C61.5282 33.25 61.9558 32.8875 62.1963 32C62.7976 29.9 61.9157 28 59.965 27.1875C57.9475 26.3375 55.6895 27.025 54.5671 28.825C54.3801 29.1125 53.525 31.1375 52.6431 33.3375C51.7746 35.525 50.9997 37.4625 50.9195 37.65L50.7858 37.975L50.1446 37.7875C49.2895 37.5375 47.94 37.625 47.2051 37.9875C46.3633 38.3875 36.9705 44.05 36.0886 44.675C34.6188 45.75 33.216 47.3 32.2673 48.9125L31.773 49.7625L31.1851 48.8C30.8643 48.275 30.4368 47.6375 30.2365 47.3875C29.6485 46.65 28.0452 45.1375 27.2568 44.5625C25.8406 43.55 16.3942 37.9625 15.793 37.8C15.0181 37.575 14.2297 37.575 13.4281 37.8125C13.0673 37.9125 12.76 37.975 12.7333 37.95C12.7066 37.925 11.9049 35.95 10.9562 33.5625C9.99423 31.1625 9.03223 28.9375 8.80509 28.6125C7.89653 27.2875 6.09276 26.5625 4.43599 26.875ZM6.11949 29.8C6.57376 30.1875 6.60049 30.2375 8.68484 35.4375C10.5287 40.075 10.5688 40.2 10.4886 40.9125C10.3817 41.85 10.5955 42.825 11.0765 43.525C11.3437 43.9125 12.3992 44.775 14.5771 46.3875C16.3007 47.6625 17.8372 48.775 17.9976 48.85C18.5053 49.1125 19.0665 49.025 19.5341 48.6375C19.9082 48.325 19.9751 48.1875 19.9751 47.7125C19.9751 47.325 19.8948 47.0625 19.7078 46.875C19.5608 46.725 18.1045 45.6125 16.4745 44.4125C13.4548 42.175 13.1341 41.85 13.3078 41.2125C13.4147 40.7625 14.0961 40.25 14.5503 40.25C14.8176 40.25 16.5412 41.2125 20.1888 43.4C26.816 47.375 27.7112 48.1375 29.1275 50.8875C30.1428 52.8875 30.2365 53.4375 30.3032 57.7125L30.3567 61.5H25.6668H20.9771V60.05C20.9771 59.2625 20.9237 58.5125 20.8435 58.3875C20.7767 58.2625 19.1733 57.125 17.2761 55.8625C12.5195 52.6875 10.9028 51.1875 9.13911 48.2875C8.20384 46.7625 7.84308 45.6 5.79883 37.9C4.00843 31.1125 3.88818 30.5875 4.06188 30.2125C4.2222 29.85 4.51615 29.625 5.07731 29.4625C5.37126 29.3625 5.7721 29.5 6.11949 29.8Z" fill="black"/>
<path d="M58.7892 36.2625C58.0009 36.5625 57.6668 37.2875 57.9875 38.0125C58.2147 38.525 58.6155 38.75 59.2969 38.75C59.7645 38.75 59.9517 38.675 60.2723 38.3875C61.2877 37.425 60.1253 35.75 58.7892 36.2625Z" fill="black"/>
</svg>
